<svg width="16" height="16" viewBox="0 0 16 16" fill="none" xmlns="http://www.w3.org/2000/svg">
<path d="M6.50002 8.74995C6.50002 8.89828 6.45603 9.04329 6.37362 9.16662C6.29121 9.28996 6.17408 9.38609 6.03703 9.44285C5.89999 9.49962 5.74919 9.51447 5.6037 9.48553C5.45822 9.4566 5.32458 9.38516 5.21969 9.28028C5.1148 9.17539 5.04337 9.04175 5.01443 8.89626C4.98549 8.75078 5.00034 8.59998 5.05711 8.46293C5.11388 8.32589 5.21001 8.20875 5.33334 8.12634C5.45668 8.04393 5.60168 7.99995 5.75002 7.99995C5.94893 7.99995 6.1397 8.07896 6.28035 8.21962C6.421 8.36027 6.50002 8.55103 6.50002 8.74995ZM10.25 7.99995C10.1017 7.99995 9.95668 8.04393 9.83334 8.12634C9.71001 8.20875 9.61388 8.32589 9.55711 8.46293C9.50035 8.59998 9.48549 8.75078 9.51443 8.89626C9.54337 9.04175 9.6148 9.17539 9.71969 9.28028C9.82458 9.38516 9.95822 9.4566 10.1037 9.48553C10.2492 9.51447 10.4 9.49962 10.537 9.44285C10.6741 9.38609 10.7912 9.28996 10.8736 9.16662C10.956 9.04329 11 8.89828 11 8.74995C11 8.55103 10.921 8.36027 10.7803 8.21962C10.6397 8.07896 10.4489 7.99995 10.25 7.99995ZM14.9031 12.0562L10.7156 13.9131C10.5897 13.969 10.4537 13.9987 10.3159 14.0002C10.1781 14.0016 10.0415 13.9749 9.91441 13.9216C9.78733 13.8684 9.67248 13.7897 9.57693 13.6904C9.48138 13.5911 9.40714 13.4733 9.35877 13.3443L8.8519 11.9693C8.5719 11.9881 8.28794 11.9977 8.00002 11.9981C7.7121 11.9985 7.42815 11.9889 7.14815 11.9693L6.64127 13.3443C6.59283 13.4733 6.51855 13.591 6.42298 13.6902C6.32741 13.7895 6.21257 13.8681 6.08552 13.9214C5.95846 13.9746 5.82186 14.0014 5.6841 13.9999C5.54634 13.9985 5.41032 13.969 5.2844 13.9131L1.0969 12.0562C0.880762 11.9617 0.705201 11.7935 0.601498 11.5817C0.497794 11.3698 0.472685 11.128 0.530645 10.8993L2.37502 3.62495C2.4237 3.43576 2.52648 3.26488 2.67079 3.13323C2.8151 3.00157 2.99468 2.91485 3.18752 2.8837L5.44127 2.51307C5.68972 2.47311 5.94416 2.52698 6.15509 2.66422C6.36603 2.80145 6.51838 3.01223 6.58252 3.25557L6.78627 4.05807C7.18335 4.01932 7.58794 3.99995 8.00002 3.99995C8.4121 3.99995 8.81627 4.01932 9.21252 4.05807L9.41627 3.25557C9.48028 3.01216 9.63261 2.80129 9.84358 2.66404C10.0545 2.52678 10.309 2.47296 10.5575 2.51307L12.8125 2.8837C13.0054 2.91485 13.1849 3.00157 13.3292 3.13323C13.4736 3.26488 13.5763 3.43576 13.625 3.62495L15.4706 10.8987C15.5287 11.1276 15.5035 11.3697 15.3995 11.5817C15.2956 11.7937 15.1196 11.9619 14.9031 12.0562ZM14.5 11.1424L12.6544 3.87495H12.6494L10.3956 3.49995C10.394 3.49901 10.3922 3.49852 10.3903 3.49852C10.3885 3.49852 10.3866 3.49901 10.385 3.49995L10.2081 4.1962C10.5206 4.25495 10.8331 4.32495 11.135 4.40995C11.254 4.44028 11.3577 4.51336 11.4263 4.61525C11.4949 4.71714 11.5236 4.84071 11.5069 4.96239C11.4902 5.08407 11.4293 5.19535 11.3358 5.27501C11.2423 5.35468 11.1228 5.39714 11 5.39432C10.9544 5.39426 10.909 5.38795 10.865 5.37557C9.93123 5.12222 8.96756 4.99588 8.00002 4.99995C7.03251 4.99568 6.06884 5.12181 5.13502 5.37495C5.07123 5.39467 5.00414 5.40141 4.9377 5.39478C4.87126 5.38815 4.80682 5.36828 4.74818 5.33635C4.68955 5.30441 4.6379 5.26105 4.59629 5.20883C4.55468 5.15661 4.52396 5.09659 4.50592 5.0323C4.48789 4.96801 4.48291 4.90076 4.49129 4.83452C4.49967 4.76828 4.52123 4.70439 4.5547 4.64661C4.58817 4.58884 4.63287 4.53835 4.68617 4.49813C4.73947 4.45792 4.80028 4.42878 4.86502 4.41245C5.16627 4.32745 5.47627 4.25745 5.79127 4.1987L5.6144 3.49995H5.60689L3.35065 3.87057C3.34879 3.87014 3.34687 3.87014 3.34502 3.87057L1.50002 11.1456L5.68752 12.9999C5.68963 13.0011 5.69199 13.0017 5.6944 13.0017C5.6968 13.0017 5.69916 13.0011 5.70127 12.9999L6.12502 11.8574C5.70045 11.7925 5.28012 11.7024 4.86627 11.5874C4.743 11.5481 4.63981 11.4624 4.57838 11.3485C4.51695 11.2346 4.50207 11.1013 4.53687 10.9767C4.57167 10.8521 4.65344 10.7458 4.76499 10.6802C4.87654 10.6146 5.00918 10.5948 5.13502 10.6249C6.06879 10.8783 7.0325 11.0044 8.00002 10.9999C8.96754 11.0044 9.93125 10.8783 10.865 10.6249C10.9927 10.5891 11.1294 10.6055 11.2451 10.6705C11.3607 10.7355 11.4458 10.8438 11.4816 10.9715C11.5174 11.0992 11.501 11.2359 11.436 11.3516C11.371 11.4672 11.2627 11.5523 11.135 11.5881C10.7207 11.7028 10.3 11.7928 9.87502 11.8574L10.2969 12.9999C10.2989 13.001 10.3012 13.0016 10.3035 13.0016C10.3057 13.0016 10.308 13.001 10.31 12.9999L14.5 11.1424Z" fill="white"/>
</svg>
