<svg width="16" height="16" viewBox="0 0 16 16" fill="none" xmlns="http://www.w3.org/2000/svg">
<path d="M11.3538 6.64627C11.4002 6.69271 11.4371 6.74785 11.4623 6.80855C11.4874 6.86925 11.5004 6.93431 11.5004 7.00002C11.5004 7.06573 11.4874 7.13079 11.4623 7.19149C11.4371 7.25219 11.4002 7.30733 11.3538 7.35377L9.35375 9.35377C9.30731 9.40026 9.25217 9.43714 9.19147 9.4623C9.13077 9.48746 9.06571 9.50041 9 9.50041C8.93429 9.50041 8.86923 9.48746 8.80853 9.4623C8.74783 9.43714 8.69269 9.40026 8.64625 9.35377L7 7.70689L5.35375 9.35377C5.25993 9.44759 5.13268 9.5003 5 9.5003C4.86732 9.5003 4.74007 9.44759 4.64625 9.35377C4.55243 9.25995 4.49972 9.1327 4.49972 9.00002C4.49972 8.86734 4.55243 8.74009 4.64625 8.64627L6.64625 6.64627C6.69269 6.59978 6.74783 6.5629 6.80853 6.53774C6.86923 6.51258 6.93429 6.49963 7 6.49963C7.06571 6.49963 7.13077 6.51258 7.19147 6.53774C7.25217 6.5629 7.30731 6.59978 7.35375 6.64627L9 8.29314L10.6462 6.64627C10.6927 6.59978 10.7478 6.5629 10.8085 6.53774C10.8692 6.51258 10.9343 6.49963 11 6.49963C11.0657 6.49963 11.1308 6.51258 11.1915 6.53774C11.2522 6.5629 11.3073 6.59978 11.3538 6.64627ZM14.5 8.00002C14.5002 9.12223 14.2099 10.2254 13.6574 11.2021C13.1048 12.1788 12.3087 12.9959 11.3467 13.5737C10.3847 14.1515 9.28942 14.4703 8.16759 14.4993C7.04575 14.5282 5.93554 14.2662 4.945 13.7388L2.81687 14.4481C2.64068 14.5069 2.4516 14.5154 2.27083 14.4728C2.09006 14.4301 1.92474 14.3379 1.79341 14.2066C1.66207 14.0753 1.56991 13.91 1.52725 13.7292C1.48459 13.5484 1.49312 13.3593 1.55187 13.1831L2.26125 11.055C1.79759 10.1833 1.53862 9.21739 1.504 8.23063C1.46937 7.24387 1.66 6.26219 2.06142 5.3601C2.46283 4.45802 3.06448 3.65924 3.8207 3.02439C4.57691 2.38954 5.46782 1.93532 6.42579 1.69619C7.38376 1.45707 8.38362 1.43932 9.34948 1.64431C10.3153 1.8493 11.2218 2.27163 12.0001 2.87925C12.7783 3.48687 13.4079 4.2638 13.8411 5.15108C14.2743 6.03835 14.4996 7.01265 14.5 8.00002ZM13.5 8.00002C13.4998 7.15635 13.3054 6.32404 12.9321 5.56748C12.5587 4.81093 12.0163 4.15042 11.3468 3.63704C10.6773 3.12366 9.89863 2.77119 9.07111 2.60689C8.24359 2.44258 7.38936 2.47086 6.57452 2.68952C5.75968 2.90818 5.00606 3.31137 4.37197 3.86789C3.73788 4.42441 3.24032 5.11935 2.91779 5.89893C2.59525 6.67852 2.45639 7.52186 2.51193 8.3637C2.56748 9.20554 2.81595 10.0233 3.23812 10.7538C3.27356 10.8151 3.29556 10.8832 3.30267 10.9537C3.30978 11.0242 3.30184 11.0954 3.27937 11.1625L2.5 13.5L4.8375 12.72C4.90471 12.6976 4.97591 12.6898 5.04638 12.697C5.11684 12.7042 5.18497 12.7264 5.24625 12.7619C6.08236 13.2455 7.03108 13.5004 7.99698 13.5009C8.96287 13.5015 9.91187 13.2476 10.7485 12.7649C11.5852 12.2822 12.2799 11.5877 12.7629 10.7513C13.2459 9.91482 13.5002 8.96591 13.5 8.00002Z" fill="white"/>
</svg>
