<svg width="16" height="16" viewBox="0 0 16 16" fill="none" xmlns="http://www.w3.org/2000/svg">
<path d="M11.7238 9.0525L9.72377 8.0525C9.64504 8.01327 9.55736 7.9955 9.46957 8.00099C9.38178 8.00647 9.29699 8.03502 9.22376 8.08375L8.30564 8.69625C7.88417 8.46456 7.53733 8.11772 7.30564 7.69625L7.91814 6.77812C7.96687 6.7049 7.99542 6.62011 8.0009 6.53232C8.00639 6.44453 7.98862 6.35685 7.94939 6.27812L6.94939 4.27813C6.90794 4.19442 6.84387 4.124 6.76445 4.07484C6.68503 4.02568 6.59342 3.99976 6.50001 4C5.83697 4 5.20109 4.26339 4.73225 4.73223C4.26341 5.20107 4.00002 5.83696 4.00002 6.5C4.00167 7.95818 4.58166 9.35617 5.61275 10.3873C6.64385 11.4184 8.04183 11.9983 9.50002 12C9.82832 12 10.1534 11.9353 10.4567 11.8097C10.76 11.6841 11.0356 11.4999 11.2678 11.2678C11.4999 11.0356 11.6841 10.76 11.8097 10.4567C11.9354 10.1534 12 9.8283 12 9.5C12.0001 9.40711 11.9743 9.31604 11.9255 9.237C11.8767 9.15795 11.8068 9.09407 11.7238 9.0525ZM9.50002 11C8.30695 10.9987 7.16312 10.5241 6.3195 9.68052C5.47587 8.83689 5.00134 7.69307 5.00002 6.5C4.99992 6.1532 5.11999 5.81708 5.3398 5.54884C5.55962 5.2806 5.86558 5.09681 6.20564 5.02875L6.92314 6.46625L6.31251 7.375C6.26688 7.44345 6.23885 7.52209 6.23089 7.60397C6.22293 7.68585 6.2353 7.76842 6.26689 7.84438C6.62463 8.69461 7.30103 9.37101 8.15126 9.72875C8.22745 9.76175 8.31065 9.77525 8.39336 9.76805C8.47607 9.76085 8.55568 9.73317 8.62501 9.6875L9.53814 9.07875L10.9756 9.79625C10.9071 10.1367 10.7225 10.4428 10.4534 10.6623C10.1842 10.8819 9.8473 11.0012 9.50002 11ZM8.00001 1.5C6.87781 1.49976 5.77465 1.79006 4.79792 2.34264C3.82119 2.89523 3.00417 3.69128 2.42637 4.65331C1.84858 5.61534 1.52969 6.71058 1.50076 7.83241C1.47182 8.95425 1.73383 10.0645 2.26126 11.055L1.55189 13.1831C1.49313 13.3593 1.4846 13.5484 1.52726 13.7292C1.56992 13.9099 1.66209 14.0753 1.79342 14.2066C1.92476 14.3379 2.09007 14.4301 2.27084 14.4728C2.45161 14.5154 2.64069 14.5069 2.81689 14.4481L4.94502 13.7388C5.81675 14.2024 6.78265 14.4614 7.76941 14.496C8.75617 14.5306 9.73785 14.34 10.6399 13.9386C11.542 13.5372 12.3408 12.9355 12.9756 12.1793C13.6105 11.4231 14.0647 10.5322 14.3038 9.57421C14.543 8.61624 14.5607 7.61638 14.3557 6.65052C14.1507 5.68467 13.7284 4.77821 13.1208 3.99995C12.5132 3.22169 11.7362 2.59208 10.849 2.15891C9.96168 1.72574 8.98738 1.50041 8.00001 1.5ZM8.00001 13.5C7.03313 13.5007 6.0832 13.246 5.24627 12.7619C5.18499 12.7263 5.11686 12.7042 5.04639 12.697C4.97592 12.6898 4.90473 12.6976 4.83752 12.72L2.50002 13.5L3.27939 11.1625C3.30186 11.0953 3.3098 11.0242 3.30269 10.9537C3.29557 10.8832 3.27357 10.8151 3.23814 10.7537C2.63187 9.70557 2.38846 8.48661 2.54566 7.28598C2.70286 6.08534 3.25189 4.97014 4.10757 4.11337C4.96325 3.2566 6.07776 2.70617 7.2782 2.54745C8.47864 2.38873 9.6979 2.63061 10.7468 3.23555C11.7958 3.8405 12.6158 4.77469 13.0796 5.89322C13.5434 7.01175 13.6252 8.25208 13.3122 9.42181C12.9991 10.5915 12.3088 11.6253 11.3484 12.3626C10.3879 13.1 9.2109 13.4998 8.00001 13.5Z" fill="white"/>
</svg>
