<svg width="16" height="16" viewBox="0 0 16 16" fill="none" xmlns="http://www.w3.org/2000/svg">
<path d="M12.0206 11.078L14.876 13.9327L13.9326 14.876L11.078 12.0207C10.0158 12.8722 8.69465 13.3353 7.33331 13.3333C4.02131 13.3333 1.33331 10.6453 1.33331 7.33334C1.33331 4.02134 4.02131 1.33334 7.33331 1.33334C10.6453 1.33334 13.3333 4.02134 13.3333 7.33334C13.3353 8.69467 12.8721 10.0158 12.0206 11.078ZM10.6833 10.5833C11.5292 9.71314 12.0017 8.54691 12 7.33334C12 4.75534 9.91131 2.66667 7.33331 2.66667C4.75531 2.66667 2.66665 4.75534 2.66665 7.33334C2.66665 9.91134 4.75531 12 7.33331 12C8.54689 12.0017 9.71312 11.5292 10.5833 10.6833L10.6833 10.5833Z" fill="#575449"/>
</svg>
