<svg width="31" height="31" viewBox="0 0 31 31" fill="none" xmlns="http://www.w3.org/2000/svg">
<mask id="path-1-inside-1_345_535" fill="white">
<path fill-rule="evenodd" clip-rule="evenodd" d="M15.4436 0.0563965C23.9671 0.0563965 30.8873 6.97646 30.8873 15.5C30.8873 24.0236 23.9671 30.9436 15.4436 30.9436C6.92004 30.9436 0 24.0236 0 15.5C0 6.97646 6.92004 0.0563965 15.4436 0.0563965ZM15.4436 28.2185C22.4633 28.2185 28.1622 22.5195 28.1622 15.5C28.1622 8.48052 22.4633 2.78154 15.4436 2.78154C8.4241 2.78154 2.72514 8.48052 2.72514 15.5C2.72514 22.5195 8.4241 28.2185 15.4436 28.2185Z"/>
</mask>
<path fill-rule="evenodd" clip-rule="evenodd" d="M15.4436 0.0563965C23.9671 0.0563965 30.8873 6.97646 30.8873 15.5C30.8873 24.0236 23.9671 30.9436 15.4436 30.9436C6.92004 30.9436 0 24.0236 0 15.5C0 6.97646 6.92004 0.0563965 15.4436 0.0563965ZM15.4436 28.2185C22.4633 28.2185 28.1622 22.5195 28.1622 15.5C28.1622 8.48052 22.4633 2.78154 15.4436 2.78154C8.4241 2.78154 2.72514 8.48052 2.72514 15.5C2.72514 22.5195 8.4241 28.2185 15.4436 28.2185Z" fill="#282A36"/>
<path d="M15.4436 4.22286C21.6661 4.22286 26.7209 9.27758 26.7209 15.5H35.0538C35.0538 4.67533 26.2681 -4.11007 15.4436 -4.11007V4.22286ZM26.7209 15.5C26.7209 21.7225 21.6661 26.7772 15.4436 26.7772V35.1101C26.2681 35.1101 35.0538 26.3247 35.0538 15.5H26.7209ZM15.4436 26.7772C9.22111 26.7772 4.16647 21.7225 4.16647 15.5H-4.16647C-4.16647 26.3247 4.61897 35.1101 15.4436 35.1101V26.7772ZM4.16647 15.5C4.16647 9.27753 9.22112 4.22286 15.4436 4.22286V-4.11007C4.61896 -4.11007 -4.16647 4.67538 -4.16647 15.5H4.16647ZM15.4436 32.385C24.7643 32.385 32.3287 24.8206 32.3287 15.5H23.9957C23.9957 20.2184 20.1622 24.052 15.4436 24.052V32.385ZM32.3287 15.5C32.3287 6.17942 24.7643 -1.38493 15.4436 -1.38493V6.94801C20.1622 6.94801 23.9957 10.7816 23.9957 15.5H32.3287ZM15.4436 -1.38493C6.12302 -1.38493 -1.44132 6.17945 -1.44132 15.5H6.89161C6.89161 10.7816 10.7252 6.94801 15.4436 6.94801V-1.38493ZM-1.44132 15.5C-1.44132 24.8206 6.12302 32.385 15.4436 32.385V24.052C10.7252 24.052 6.89161 20.2185 6.89161 15.5H-1.44132Z" fill="#282A36" mask="url(#path-1-inside-1_345_535)"/>
<mask id="path-3-inside-2_345_535" fill="white">
<path fill-rule="evenodd" clip-rule="evenodd" d="M11.3615 23.7329C8.33629 22.2285 6.25537 19.1054 6.25537 15.5001C6.25537 11.8948 8.33629 8.77166 11.3615 7.2673V5.35425H13.8838V6.44372C14.3909 6.35682 14.9121 6.31156 15.4439 6.31156C15.9756 6.31156 16.4969 6.35682 17.004 6.44372V5.35425H19.5262V7.2673C22.5515 8.77166 24.6325 11.8948 24.6325 15.5001C24.6325 19.1054 22.5515 22.2285 19.5262 23.7329V25.6459H17.004V24.5565C16.4969 24.6433 15.9756 24.6886 15.4439 24.6886C14.9121 24.6886 14.3909 24.6433 13.8838 24.5565V25.6459H11.3615V23.7329ZM15.4439 22.1923C19.1375 22.1923 22.1362 19.1936 22.1362 15.5001C22.1362 11.8065 19.1375 8.80777 15.4439 8.80777C11.7503 8.80777 8.75157 11.8065 8.75157 15.5001C8.75157 19.1936 11.7503 22.1923 15.4439 22.1923Z"/>
</mask>
<path fill-rule="evenodd" clip-rule="evenodd" d="M11.3615 23.7329C8.33629 22.2285 6.25537 19.1054 6.25537 15.5001C6.25537 11.8948 8.33629 8.77166 11.3615 7.2673V5.35425H13.8838V6.44372C14.3909 6.35682 14.9121 6.31156 15.4439 6.31156C15.9756 6.31156 16.4969 6.35682 17.004 6.44372V5.35425H19.5262V7.2673C22.5515 8.77166 24.6325 11.8948 24.6325 15.5001C24.6325 19.1054 22.5515 22.2285 19.5262 23.7329V25.6459H17.004V24.5565C16.4969 24.6433 15.9756 24.6886 15.4439 24.6886C14.9121 24.6886 14.3909 24.6433 13.8838 24.5565V25.6459H11.3615V23.7329ZM15.4439 22.1923C19.1375 22.1923 22.1362 19.1936 22.1362 15.5001C22.1362 11.8065 19.1375 8.80777 15.4439 8.80777C11.7503 8.80777 8.75157 11.8065 8.75157 15.5001C8.75157 19.1936 11.7503 22.1923 15.4439 22.1923Z" fill="#282A36"/>
<path d="M11.3615 23.7329H15.5259C15.5259 22.1523 14.631 20.7079 13.2158 20.0042L11.3615 23.7329ZM11.3615 7.2673L13.2157 10.9961C14.631 10.2923 15.5259 8.84793 15.5259 7.2673L11.3615 7.2673ZM11.3615 5.35425V1.18991C9.06164 1.18991 7.1972 3.05434 7.1972 5.35425L11.3615 5.35425ZM13.8838 5.35425H18.0481C18.0481 3.05434 16.1837 1.18991 13.8838 1.18991V5.35425ZM13.8838 6.44372H9.71941C9.71941 7.67114 10.2609 8.83605 11.1992 9.6273C12.1376 10.4185 13.3772 10.7555 14.587 10.5482L13.8838 6.44372ZM17.004 6.44372L16.3007 10.5482C17.5105 10.7555 18.7502 10.4186 19.6885 9.6273C20.6269 8.83606 21.1684 7.67114 21.1684 6.44372L17.004 6.44372ZM17.004 5.35425V1.18991C14.7041 1.18991 12.8397 3.05434 12.8397 5.35425L17.004 5.35425ZM19.5262 5.35425H23.6905C23.6905 3.05434 21.8261 1.18991 19.5262 1.18991V5.35425ZM19.5262 7.2673H15.3618C15.3618 8.84795 16.2567 10.2923 17.672 10.9961L19.5262 7.2673ZM19.5262 23.7329L17.672 20.0041C16.2567 20.7079 15.3618 22.1523 15.3618 23.7329H19.5262ZM19.5262 25.6459V29.8102C21.8261 29.8102 23.6905 27.9458 23.6905 25.6459H19.5262ZM17.004 25.6459H12.8397C12.8397 27.9458 14.7041 29.8102 17.004 29.8102V25.6459ZM17.004 24.5565H21.1684C21.1684 23.3292 20.627 22.1645 19.6889 21.3732C18.7507 20.582 17.5114 20.2448 16.3017 20.4518L17.004 24.5565ZM13.8838 24.5565L14.5861 20.4518C13.3764 20.2448 12.137 20.582 11.1989 21.3732C10.2608 22.1645 9.71941 23.3293 9.71941 24.5565H13.8838ZM13.8838 25.6459V29.8102C16.1837 29.8102 18.0481 27.9458 18.0481 25.6459H13.8838ZM11.3615 25.6459H7.1972C7.1972 27.9458 9.06164 29.8102 11.3615 29.8102V25.6459ZM13.2158 20.0042C11.5493 19.1754 10.4197 17.4626 10.4197 15.5001H2.09103C2.09103 20.7482 5.12331 25.2816 9.50732 27.4617L13.2158 20.0042ZM10.4197 15.5001C10.4197 13.5375 11.5493 11.8248 13.2157 10.9961L9.50736 3.53853C5.12331 5.71857 2.09103 10.252 2.09103 15.5001H10.4197ZM15.5259 7.2673V5.35425H7.1972V7.2673H15.5259ZM11.3615 9.51859H13.8838V1.18991H11.3615V9.51859ZM9.71941 5.35425V6.44372H18.0481V5.35425H9.71941ZM14.587 10.5482C14.8629 10.501 15.1489 10.4759 15.4439 10.4759V2.14722C14.6754 2.14722 13.9189 2.21267 13.1805 2.33919L14.587 10.5482ZM15.4439 10.4759C15.7389 10.4759 16.0249 10.501 16.3007 10.5482L17.7073 2.33919C16.9689 2.21267 16.2124 2.14722 15.4439 2.14722V10.4759ZM21.1684 6.44372V5.35425H12.8397V6.44372H21.1684ZM17.004 9.51859H19.5262V1.18991H17.004V9.51859ZM15.3618 5.35425V7.2673H23.6905V5.35425H15.3618ZM17.672 10.9961C19.3386 11.8248 20.4681 13.5376 20.4681 15.5001H28.7968C28.7968 10.252 25.7645 5.71853 21.3803 3.53851L17.672 10.9961ZM20.4681 15.5001C20.4681 17.4626 19.3386 19.1754 17.672 20.0041L21.3804 27.4617C25.7645 25.2816 28.7968 20.7482 28.7968 15.5001H20.4681ZM15.3618 23.7329V25.6459H23.6905V23.7329H15.3618ZM19.5262 21.4815H17.004V29.8102H19.5262V21.4815ZM21.1684 25.6459V24.5565H12.8397V25.6459H21.1684ZM16.3017 20.4518C16.025 20.4992 15.7387 20.5242 15.4439 20.5242V28.8529C16.2126 28.8529 16.9688 28.7874 17.7064 28.6612L16.3017 20.4518ZM15.4439 20.5242C15.1491 20.5242 14.8628 20.4992 14.5861 20.4518L13.1814 28.6612C13.919 28.7874 14.6752 28.8529 15.4439 28.8529V20.5242ZM9.71941 24.5565V25.6459H18.0481V24.5565H9.71941ZM13.8838 21.4815H11.3615V29.8102H13.8838V21.4815ZM15.5259 25.6459V23.7329H7.1972V25.6459H15.5259ZM15.4439 26.3567C21.4374 26.3567 26.3006 21.4936 26.3006 15.5001H17.9719C17.9719 16.8937 16.8376 18.028 15.4439 18.028V26.3567ZM26.3006 15.5001C26.3006 9.50658 21.4374 4.64343 15.4439 4.64343V12.9721C16.8376 12.9721 17.9719 14.1064 17.9719 15.5001H26.3006ZM15.4439 4.64343C9.45042 4.64343 4.58723 9.50658 4.58723 15.5001H12.9159C12.9159 14.1064 14.0502 12.9721 15.4439 12.9721V4.64343ZM4.58723 15.5001C4.58723 21.4936 9.45043 26.3567 15.4439 26.3567V18.028C14.0502 18.028 12.9159 16.8937 12.9159 15.5001H4.58723Z" fill="#282A36" mask="url(#path-3-inside-2_345_535)"/>
</svg>
