<svg width="31" height="31" viewBox="0 0 31 31" fill="none" xmlns="http://www.w3.org/2000/svg">
<g id="Logo">
<g id="Vector">
<mask id="path-1-inside-1_272_168" fill="white">
<path fill-rule="evenodd" clip-rule="evenodd" d="M15.4436 0C23.9671 0 30.8873 6.92006 30.8873 15.4436C30.8873 23.9672 23.9671 30.8872 15.4436 30.8872C6.92004 30.8872 0 23.9672 0 15.4436C0 6.92006 6.92004 0 15.4436 0ZM15.4436 28.1621C22.4633 28.1621 28.1622 22.4631 28.1622 15.4436C28.1622 8.42412 22.4633 2.72514 15.4436 2.72514C8.4241 2.72514 2.72514 8.42412 2.72514 15.4436C2.72514 22.4631 8.4241 28.1621 15.4436 28.1621Z"/>
</mask>
<path fill-rule="evenodd" clip-rule="evenodd" d="M15.4436 0C23.9671 0 30.8873 6.92006 30.8873 15.4436C30.8873 23.9672 23.9671 30.8872 15.4436 30.8872C6.92004 30.8872 0 23.9672 0 15.4436C0 6.92006 6.92004 0 15.4436 0ZM15.4436 28.1621C22.4633 28.1621 28.1622 22.4631 28.1622 15.4436C28.1622 8.42412 22.4633 2.72514 15.4436 2.72514C8.4241 2.72514 2.72514 8.42412 2.72514 15.4436C2.72514 22.4631 8.4241 28.1621 15.4436 28.1621Z" fill="#DCCB92"/>
<path d="M15.4436 4.16647C21.6661 4.16647 26.7209 9.22118 26.7209 15.4436H35.0538C35.0538 4.61894 26.2681 -4.16647 15.4436 -4.16647V4.16647ZM26.7209 15.4436C26.7209 21.6661 21.6661 26.7208 15.4436 26.7208V35.0537C26.2681 35.0537 35.0538 26.2683 35.0538 15.4436H26.7209ZM15.4436 26.7208C9.22111 26.7208 4.16647 21.6661 4.16647 15.4436H-4.16647C-4.16647 26.2683 4.61897 35.0537 15.4436 35.0537V26.7208ZM4.16647 15.4436C4.16647 9.22113 9.22112 4.16647 15.4436 4.16647V-4.16647C4.61896 -4.16647 -4.16647 4.61899 -4.16647 15.4436H4.16647ZM15.4436 32.3286C24.7643 32.3286 32.3287 24.7642 32.3287 15.4436H23.9957C23.9957 20.1621 20.1622 23.9956 15.4436 23.9956V32.3286ZM32.3287 15.4436C32.3287 6.12303 24.7643 -1.44132 15.4436 -1.44132V6.89161C20.1622 6.89161 23.9957 10.7252 23.9957 15.4436H32.3287ZM15.4436 -1.44132C6.12302 -1.44132 -1.44132 6.12305 -1.44132 15.4436H6.89161C6.89161 10.7252 10.7252 6.89161 15.4436 6.89161V-1.44132ZM-1.44132 15.4436C-1.44132 24.7642 6.12302 32.3286 15.4436 32.3286V23.9956C10.7252 23.9956 6.89161 20.1621 6.89161 15.4436H-1.44132Z" fill="#DCCB92" mask="url(#path-1-inside-1_272_168)"/>
</g>
<g id="Vector_2">
<mask id="path-3-inside-2_272_168" fill="white">
<path fill-rule="evenodd" clip-rule="evenodd" d="M11.3613 23.6765C8.33604 22.1721 6.25513 19.049 6.25513 15.4437C6.25513 11.8384 8.33604 8.71526 11.3613 7.21091V5.29785H13.8835V6.38732C14.3906 6.30043 14.9119 6.25516 15.4437 6.25516C15.9754 6.25516 16.4967 6.30043 17.0038 6.38732V5.29785H19.5259V7.21091C22.5513 8.71526 24.6322 11.8384 24.6322 15.4437C24.6322 19.049 22.5513 22.1721 19.5259 23.6765V25.5895H17.0038V24.5001C16.4967 24.5869 15.9754 24.6322 15.4437 24.6322C14.9119 24.6322 14.3906 24.5869 13.8835 24.5001V25.5895H11.3613V23.6765ZM15.4437 22.136C19.1373 22.136 22.136 19.1372 22.136 15.4437C22.136 11.7501 19.1373 8.75138 15.4437 8.75138C11.7501 8.75138 8.75133 11.7501 8.75133 15.4437C8.75133 19.1372 11.7501 22.136 15.4437 22.136Z"/>
</mask>
<path fill-rule="evenodd" clip-rule="evenodd" d="M11.3613 23.6765C8.33604 22.1721 6.25513 19.049 6.25513 15.4437C6.25513 11.8384 8.33604 8.71526 11.3613 7.21091V5.29785H13.8835V6.38732C14.3906 6.30043 14.9119 6.25516 15.4437 6.25516C15.9754 6.25516 16.4967 6.30043 17.0038 6.38732V5.29785H19.5259V7.21091C22.5513 8.71526 24.6322 11.8384 24.6322 15.4437C24.6322 19.049 22.5513 22.1721 19.5259 23.6765V25.5895H17.0038V24.5001C16.4967 24.5869 15.9754 24.6322 15.4437 24.6322C14.9119 24.6322 14.3906 24.5869 13.8835 24.5001V25.5895H11.3613V23.6765ZM15.4437 22.136C19.1373 22.136 22.136 19.1372 22.136 15.4437C22.136 11.7501 19.1373 8.75138 15.4437 8.75138C11.7501 8.75138 8.75133 11.7501 8.75133 15.4437C8.75133 19.1372 11.7501 22.136 15.4437 22.136Z" fill="#DCCB92"/>
<path d="M11.3613 23.6765H15.5256C15.5256 22.0959 14.6308 20.6515 13.2155 19.9478L11.3613 23.6765ZM11.3613 7.21091L13.2155 10.9397C14.6308 10.2359 15.5256 8.79153 15.5256 7.21091H11.3613ZM11.3613 5.29785V1.13351C9.0614 1.13351 7.19696 2.99795 7.19696 5.29785L11.3613 5.29785ZM13.8835 5.29785H18.0479C18.0479 2.99795 16.1834 1.13351 13.8835 1.13351V5.29785ZM13.8835 6.38732H9.71917C9.71917 7.61474 10.2607 8.77965 11.199 9.5709C12.1374 10.3621 13.377 10.6991 14.5868 10.4918L13.8835 6.38732ZM17.0038 6.38732L16.3005 10.4918C17.5103 10.6991 18.7499 10.3622 19.6883 9.57091C20.6266 8.77966 21.1681 7.61475 21.1681 6.38732H17.0038ZM17.0038 5.29785V1.13351C14.7039 1.13351 12.8394 2.99795 12.8394 5.29785L17.0038 5.29785ZM19.5259 5.29785H23.6903C23.6903 2.99795 21.8258 1.13351 19.5259 1.13351V5.29785ZM19.5259 7.21091H15.3616C15.3616 8.79155 16.2565 10.2359 17.6718 10.9397L19.5259 7.21091ZM19.5259 23.6765L17.6718 19.9477C16.2565 20.6515 15.3616 22.0959 15.3616 23.6765H19.5259ZM19.5259 25.5895V29.7538C21.8258 29.7538 23.6903 27.8894 23.6903 25.5895H19.5259ZM17.0038 25.5895H12.8394C12.8394 27.8894 14.7039 29.7538 17.0038 29.7538V25.5895ZM17.0038 24.5001H21.1681C21.1681 23.2729 20.6268 22.1081 19.6886 21.3168C18.7505 20.5256 17.5111 20.1884 16.3014 20.3954L17.0038 24.5001ZM13.8835 24.5001L14.5858 20.3954C13.3762 20.1884 12.1368 20.5256 11.1986 21.3168C10.2605 22.1081 9.71917 23.2729 9.71917 24.5001H13.8835ZM13.8835 25.5895V29.7538C16.1834 29.7538 18.0479 27.8894 18.0479 25.5895H13.8835ZM11.3613 25.5895H7.19696C7.19696 27.8894 9.0614 29.7538 11.3613 29.7538V25.5895ZM13.2155 19.9478C11.549 19.119 10.4195 17.4062 10.4195 15.4437H2.09078C2.09078 20.6918 5.12306 25.2252 9.50707 27.4053L13.2155 19.9478ZM10.4195 15.4437C10.4195 13.4811 11.549 11.7684 13.2155 10.9397L9.50711 3.48214C5.12306 5.66217 2.09078 10.1956 2.09078 15.4437H10.4195ZM15.5256 7.21091V5.29785H7.19696V7.21091H15.5256ZM11.3613 9.46219H13.8835V1.13351H11.3613V9.46219ZM9.71917 5.29785V6.38732H18.0479V5.29785H9.71917ZM14.5868 10.4918C14.8627 10.4446 15.1487 10.4195 15.4437 10.4195V2.09082C14.6751 2.09082 13.9186 2.15628 13.1802 2.28279L14.5868 10.4918ZM15.4437 10.4195C15.7386 10.4195 16.0246 10.4446 16.3005 10.4918L17.7071 2.28279C16.9687 2.15628 16.2122 2.09082 15.4437 2.09082V10.4195ZM21.1681 6.38732V5.29785H12.8394V6.38732H21.1681ZM17.0038 9.46219H19.5259V1.13351H17.0038V9.46219ZM15.3616 5.29785V7.21091H23.6903V5.29785H15.3616ZM17.6718 10.9397C19.3383 11.7684 20.4679 13.4812 20.4679 15.4437H28.7966C28.7966 10.1956 25.7642 5.66214 21.3801 3.48211L17.6718 10.9397ZM20.4679 15.4437C20.4679 17.4062 19.3383 19.119 17.6718 19.9477L21.3801 27.4053C25.7642 25.2252 28.7966 20.6918 28.7966 15.4437H20.4679ZM15.3616 23.6765V25.5895H23.6903V23.6765H15.3616ZM19.5259 21.4251H17.0038V29.7538H19.5259V21.4251ZM21.1681 25.5895V24.5001H12.8394V25.5895H21.1681ZM16.3014 20.3954C16.0247 20.4428 15.7384 20.4679 15.4437 20.4679V28.7965C16.2124 28.7965 16.9686 28.731 17.7061 28.6048L16.3014 20.3954ZM15.4437 20.4679C15.1489 20.4679 14.8626 20.4428 14.5858 20.3954L13.1812 28.6048C13.9187 28.731 14.6749 28.7965 15.4437 28.7965V20.4679ZM9.71917 24.5001V25.5895H18.0479V24.5001H9.71917ZM13.8835 21.4251H11.3613V29.7538H13.8835V21.4251ZM15.5256 25.5895V23.6765H7.19696V25.5895H15.5256ZM15.4437 26.3003C21.4371 26.3003 26.3003 21.4372 26.3003 15.4437H17.9716C17.9716 16.8373 16.8374 17.9716 15.4437 17.9716V26.3003ZM26.3003 15.4437C26.3003 9.45019 21.4372 4.58703 15.4437 4.58703V12.9157C16.8374 12.9157 17.9716 14.05 17.9716 15.4437H26.3003ZM15.4437 4.58703C9.45017 4.58703 4.58699 9.45018 4.58699 15.4437H12.9157C12.9157 14.05 14.05 12.9157 15.4437 12.9157V4.58703ZM4.58699 15.4437C4.58699 21.4372 9.45019 26.3003 15.4437 26.3003V17.9716C14.0499 17.9716 12.9157 16.8373 12.9157 15.4437H4.58699Z" fill="#DCCB92" mask="url(#path-3-inside-2_272_168)"/>
</g>
</g>
</svg>
