<svg width="14" height="14" viewBox="0 0 14 14" fill="none" xmlns="http://www.w3.org/2000/svg">
<path d="M7.50518 1.75001L13.062 11.375C13.1132 11.4637 13.1402 11.5643 13.1402 11.6667C13.1402 11.7691 13.1132 11.8697 13.062 11.9583C13.0108 12.047 12.9372 12.1207 12.8485 12.1719C12.7598 12.2231 12.6592 12.25 12.5568 12.25H1.44318C1.34079 12.25 1.2402 12.2231 1.15152 12.1719C1.06284 12.1207 0.989208 12.047 0.938011 11.9583C0.886815 11.8697 0.859863 11.7691 0.859863 11.6667C0.859864 11.5643 0.886818 11.4637 0.938015 11.375L6.49485 1.75001C6.54605 1.66134 6.61969 1.58771 6.70836 1.53652C6.79704 1.48532 6.89762 1.45837 7.00001 1.45837C7.10241 1.45837 7.20299 1.48532 7.29167 1.53652C7.38034 1.58771 7.45398 1.66134 7.50518 1.75001ZM2.45352 11.0833H11.5465L7.00001 3.20835L2.45352 11.0833ZM6.41668 9.33335H7.58335V10.5H6.41668V9.33335ZM6.41668 5.25001H7.58335V8.16668H6.41668V5.25001Z" fill="white"/>
</svg>
