<svg width="33" height="33" viewBox="0 0 33 33" fill="none" xmlns="http://www.w3.org/2000/svg">
<path d="M4.50667 4.82666H28.5067C28.8603 4.82666 29.1994 4.96714 29.4495 5.21718C29.6995 5.46723 29.84 5.80637 29.84 6.15999V27.4933C29.84 27.8469 29.6995 28.1861 29.4495 28.4361C29.1994 28.6862 28.8603 28.8267 28.5067 28.8267H4.50667C4.15305 28.8267 3.81391 28.6862 3.56386 28.4361C3.31382 28.1861 3.17334 27.8469 3.17334 27.4933V6.15999C3.17334 5.80637 3.31382 5.46723 3.56386 5.21718C3.81391 4.96714 4.15305 4.82666 4.50667 4.82666ZM27.1733 15.4933H5.84001V26.16H27.1733V15.4933ZM27.1733 12.8267V7.49333H5.84001V12.8267H27.1733ZM19.1733 20.8267H24.5067V23.4933H19.1733V20.8267Z" fill="white"/>
</svg>
