<svg width="32" height="32" viewBox="0 0 32 32" fill="none" xmlns="http://www.w3.org/2000/svg">
<path d="M27.6174 10.8373L27.2894 11.592C27.2382 11.7149 27.1517 11.8199 27.0409 11.8937C26.9301 11.9676 26.7999 12.007 26.6667 12.007C26.5336 12.007 26.4034 11.9676 26.2926 11.8937C26.1818 11.8199 26.0953 11.7149 26.0441 11.592L25.7161 10.8373C25.1394 9.50231 24.0833 8.43191 22.7561 7.83735L21.7441 7.38535C21.6213 7.32887 21.5173 7.23838 21.4444 7.12459C21.3715 7.0108 21.3327 6.87849 21.3327 6.74335C21.3327 6.60821 21.3715 6.4759 21.4444 6.36211C21.5173 6.24832 21.6213 6.15783 21.7441 6.10135L22.7001 5.67602C24.0606 5.06452 25.1348 3.95453 25.7014 2.57468L26.0387 1.76002C26.0883 1.63382 26.1747 1.52548 26.2867 1.44912C26.3987 1.37275 26.5312 1.33191 26.6667 1.33191C26.8023 1.33191 26.9347 1.37275 27.0468 1.44912C27.1588 1.52548 27.2452 1.63382 27.2947 1.76002L27.6321 2.57335C28.1981 3.95345 29.2718 5.06393 30.6321 5.67602L31.5894 6.10268C31.7118 6.15932 31.8155 6.24981 31.8881 6.36345C31.9607 6.47709 31.9993 6.60915 31.9993 6.74402C31.9993 6.87889 31.9607 7.01094 31.8881 7.12459C31.8155 7.23823 31.7118 7.32871 31.5894 7.38535L30.5761 7.83602C29.2492 8.43117 28.1935 9.50205 27.6174 10.8373ZM2.66675 5.33335C2.66675 4.97973 2.80722 4.64059 3.05727 4.39054C3.30732 4.14049 3.64646 4.00002 4.00008 4.00002H18.6667V6.66668H5.33341V25.3333H26.6667V14.6667H29.3334V26.6667C29.3334 27.0203 29.1929 27.3594 28.9429 27.6095C28.6928 27.8595 28.3537 28 28.0001 28H4.00008C3.64646 28 3.30732 27.8595 3.05727 27.6095C2.80722 27.3594 2.66675 27.0203 2.66675 26.6667V5.33335ZM9.33341 17.3333H12.0001V22.6667H9.33341V17.3333ZM14.6667 9.33335H17.3334V22.6667H14.6667V9.33335ZM20.0001 13.3334H22.6667V22.6667H20.0001V13.3334Z" fill="#DCCB92"/>
</svg>
