<svg width="32" height="32" viewBox="0 0 32 32" fill="none" xmlns="http://www.w3.org/2000/svg">
<path d="M2.66663 26.6667H29.3333V29.3334H2.66663V26.6667ZM5.33329 16.0001H7.99996V25.3334H5.33329V16.0001ZM12 16.0001H14.6666V25.3334H12V16.0001ZM17.3333 16.0001H20V25.3334H17.3333V16.0001ZM24 16.0001H26.6666V25.3334H24V16.0001ZM2.66663 9.33341L16 2.66675L29.3333 9.33341V14.6667H2.66663V9.33341ZM5.33329 10.9814V12.0001H26.6666V10.9814L16 5.64808L5.33329 10.9814ZM16 10.6667C15.6463 10.6667 15.3072 10.5263 15.0571 10.2762C14.8071 10.0262 14.6666 9.68704 14.6666 9.33341C14.6666 8.97979 14.8071 8.64065 15.0571 8.39061C15.3072 8.14056 15.6463 8.00008 16 8.00008C16.3536 8.00008 16.6927 8.14056 16.9428 8.39061C17.1928 8.64065 17.3333 8.97979 17.3333 9.33341C17.3333 9.68704 17.1928 10.0262 16.9428 10.2762C16.6927 10.5263 16.3536 10.6667 16 10.6667Z" fill="#DCCB92"/>
</svg>
