<svg width="21" height="20" viewBox="0 0 21 20" fill="none" xmlns="http://www.w3.org/2000/svg">
<path d="M5.50008 15H15.5001V4.99996H5.50008V15ZM12.1667 16.6666H8.83341V18.3333H7.16675V16.6666H4.66675C4.44573 16.6666 4.23377 16.5788 4.07749 16.4225C3.92121 16.2663 3.83341 16.0543 3.83341 15.8333V13.3333H2.16675V11.6666H3.83341V8.33329H2.16675V6.66663H3.83341V4.16663C3.83341 3.94561 3.92121 3.73365 4.07749 3.57737C4.23377 3.42109 4.44573 3.33329 4.66675 3.33329H7.16675V1.66663H8.83341V3.33329H12.1667V1.66663H13.8334V3.33329H16.3334C16.5544 3.33329 16.7664 3.42109 16.9227 3.57737C17.079 3.73365 17.1667 3.94561 17.1667 4.16663V6.66663H18.8334V8.33329H17.1667V11.6666H18.8334V13.3333H17.1667V15.8333C17.1667 16.0543 17.079 16.2663 16.9227 16.4225C16.7664 16.5788 16.5544 16.6666 16.3334 16.6666H13.8334V18.3333H12.1667V16.6666ZM7.16675 6.66663H13.8334V13.3333H7.16675V6.66663Z" fill="#DCCB92"/>
</svg>
