<svg width="20" height="21" viewBox="0 0 20 21" fill="none" xmlns="http://www.w3.org/2000/svg">
<path d="M7.50008 1.66016V3.32682H12.5001V1.66016H14.1667V3.32682H17.5001C17.7211 3.32682 17.9331 3.41462 18.0893 3.5709C18.2456 3.72718 18.3334 3.93914 18.3334 4.16016V17.4935C18.3334 17.7145 18.2456 17.9265 18.0893 18.0827C17.9331 18.239 17.7211 18.3268 17.5001 18.3268H2.50008C2.27907 18.3268 2.06711 18.239 1.91083 18.0827C1.75455 17.9265 1.66675 17.7145 1.66675 17.4935V4.16016C1.66675 3.93914 1.75455 3.72718 1.91083 3.5709C2.06711 3.41462 2.27907 3.32682 2.50008 3.32682H5.83341V1.66016H7.50008ZM16.6667 9.16016H3.33341V16.6602H16.6667V9.16016ZM12.5301 10.1068L13.7084 11.2852L9.58341 15.4102L6.63675 12.4635L7.81675 11.2852L9.58425 13.0535L12.5301 10.1068ZM5.83341 4.99349H3.33341V7.49349H16.6667V4.99349H14.1667V5.82682H12.5001V4.99349H7.50008V5.82682H5.83341V4.99349Z" fill="#DCCB92"/>
</svg>
