<svg width="20" height="21" viewBox="0 0 20 21" fill="none" xmlns="http://www.w3.org/2000/svg">
<path d="M9.99984 18.8334C5.39734 18.8334 1.6665 15.1025 1.6665 10.5C1.6665 5.89752 5.39734 2.16669 9.99984 2.16669C14.6023 2.16669 18.3332 5.89752 18.3332 10.5C18.3332 15.1025 14.6023 18.8334 9.99984 18.8334ZM9.99984 17.1667C11.7679 17.1667 13.4636 16.4643 14.7139 15.2141C15.9641 13.9638 16.6665 12.2681 16.6665 10.5C16.6665 8.73191 15.9641 7.03622 14.7139 5.78598C13.4636 4.53573 11.7679 3.83335 9.99984 3.83335C8.23173 3.83335 6.53603 4.53573 5.28579 5.78598C4.03555 7.03622 3.33317 8.73191 3.33317 10.5C3.33317 12.2681 4.03555 13.9638 5.28579 15.2141C6.53603 16.4643 8.23173 17.1667 9.99984 17.1667ZM9.99984 9.32169L12.3565 6.96419L13.5357 8.14335L11.1782 10.5L13.5357 12.8567L12.3565 14.0359L9.99984 11.6784L7.64317 14.0359L6.464 12.8567L8.8215 10.5L6.464 8.14335L7.64317 6.96419L9.99984 9.32169Z" fill="#DCCB92"/>
</svg>
