<svg width="20" height="20" viewBox="0 0 20 20" fill="none" xmlns="http://www.w3.org/2000/svg">
<path d="M1.66504 17.5V15.8334H3.33171V4.02919C3.33168 3.83403 3.40014 3.64505 3.52517 3.49519C3.6502 3.34534 3.82386 3.24412 4.01587 3.20919L11.9092 1.77419C11.9812 1.76114 12.0552 1.76405 12.126 1.78273C12.1967 1.80141 12.2625 1.83539 12.3187 1.88229C12.3749 1.92918 12.4201 1.98783 12.4512 2.05411C12.4822 2.12039 12.4983 2.19267 12.4984 2.26586V3.33252L15.8317 3.33336C16.0527 3.33336 16.2647 3.42115 16.421 3.57743C16.5772 3.73371 16.665 3.94568 16.665 4.16669V15.8334H18.3317V17.5H14.9984V5.00002H12.4984V17.5H1.66504ZM10.8317 3.66419L4.99837 4.72419V15.8334H10.8317V3.66419ZM9.99837 9.16669V10.8334H8.33171V9.16669H9.99837Z" fill="#DCCB92"/>
</svg>
