<svg width="20" height="21" viewBox="0 0 20 21" fill="none" xmlns="http://www.w3.org/2000/svg">
<path d="M9.16675 16.66V8.32666H3.33341V16.66H9.16675ZM9.16675 6.65999V4.15999C9.16675 3.93898 9.25455 3.72702 9.41083 3.57074C9.56711 3.41446 9.77907 3.32666 10.0001 3.32666H17.5001C17.7211 3.32666 17.9331 3.41446 18.0893 3.57074C18.2456 3.72702 18.3334 3.93898 18.3334 4.15999V17.4933C18.3334 17.7143 18.2456 17.9263 18.0893 18.0826C17.9331 18.2389 17.7211 18.3267 17.5001 18.3267H2.50008C2.27907 18.3267 2.06711 18.2389 1.91083 18.0826C1.75455 17.9263 1.66675 17.7143 1.66675 17.4933V7.49333C1.66675 7.27231 1.75455 7.06035 1.91083 6.90407C2.06711 6.74779 2.27907 6.65999 2.50008 6.65999H9.16675ZM10.8334 4.99333V16.66H16.6667V4.99333H10.8334ZM4.16675 14.16H8.33341V15.8267H4.16675V14.16ZM11.6667 14.16H15.8334V15.8267H11.6667V14.16ZM11.6667 11.66H15.8334V13.3267H11.6667V11.66ZM11.6667 9.15999H15.8334V10.8267H11.6667V9.15999ZM4.16675 11.66H8.33341V13.3267H4.16675V11.66Z" fill="#DCCB92"/>
</svg>
