<svg width="33" height="32" viewBox="0 0 33 32" fill="none" xmlns="http://www.w3.org/2000/svg">
<path d="M16.6733 29.3373C9.3093 29.3373 3.33997 23.368 3.33997 16.004C3.33997 8.63999 9.3093 2.67065 16.6733 2.67065C24.0373 2.67065 30.0066 8.63999 30.0066 16.004C30.0066 23.368 24.0373 29.3373 16.6733 29.3373ZM16.6733 26.6707C19.5023 26.6707 22.2154 25.5468 24.2158 23.5465C26.2162 21.5461 27.34 18.833 27.34 16.004C27.34 13.175 26.2162 10.4619 24.2158 8.46151C22.2154 6.46113 19.5023 5.33732 16.6733 5.33732C13.8443 5.33732 11.1312 6.46113 9.13083 8.46151C7.13044 10.4619 6.00663 13.175 6.00663 16.004C6.00663 18.833 7.13044 21.5461 9.13083 23.5465C11.1312 25.5468 13.8443 26.6707 16.6733 26.6707ZM10.0066 17.3373H22.0066V20.004H16.6733V24.004L10.0066 17.3373ZM16.6733 12.004V8.00399L23.34 14.6707H11.34V12.004H16.6733Z" fill="#DCCB92"/>
</svg>
