<svg width="21" height="20" viewBox="0 0 21 20" fill="none" xmlns="http://www.w3.org/2000/svg">
<path d="M15.4026 16.0808C13.9367 17.0105 12.236 17.5028 10.5001 17.5C6.00677 17.5 2.26844 14.2666 1.48511 9.99996C1.8442 8.05976 2.81976 6.28722 4.26677 4.94579L1.66177 2.33995L2.84011 1.16162L19.3393 17.66L18.1609 18.8391L15.4026 16.0808ZM5.44677 6.12495C4.31418 7.15467 3.52502 8.50727 3.18594 9.99996C3.44618 11.1387 3.96866 12.2009 4.71178 13.1021C5.45489 14.0033 6.39813 14.7186 7.4664 15.191C8.53467 15.6635 9.69848 15.88 10.8652 15.8234C12.0319 15.7668 13.1693 15.4386 14.1868 14.865L12.4968 13.175C11.7773 13.6281 10.9253 13.8234 10.0803 13.7287C9.23534 13.6339 8.44764 13.2549 7.84642 12.6536C7.24519 12.0524 6.86613 11.2647 6.77141 10.4198C6.67669 9.57479 6.87193 8.72271 7.32511 8.00329L5.44677 6.12495ZM11.2618 11.94L8.56011 9.23912C8.41183 9.61657 8.37693 10.0291 8.45969 10.4261C8.54246 10.8231 8.73929 11.1873 9.02604 11.474C9.31279 11.7608 9.677 11.9576 10.074 12.0404C10.471 12.1231 10.8843 12.0882 11.2618 11.94ZM17.8384 13.8275L16.6459 12.635C17.2043 11.8415 17.6015 10.9463 17.8151 9.99996C17.5886 9.00797 17.1628 8.0724 16.5635 7.25012C15.9642 6.42784 15.2039 5.73603 14.3289 5.21675C13.4538 4.69747 12.4823 4.36157 11.4735 4.22946C10.4646 4.09736 9.43933 4.17181 8.46011 4.44829L7.14511 3.13329C8.18427 2.72495 9.31677 2.49995 10.5001 2.49995C14.9934 2.49995 18.7318 5.73329 19.5159 9.99996C19.2606 11.3883 18.6859 12.6985 17.8384 13.8275ZM10.2693 6.25745C10.3454 6.25245 10.4223 6.24995 10.5001 6.24995C11.0121 6.24989 11.5187 6.35467 11.9887 6.55785C12.4587 6.76103 12.8821 7.0583 13.2328 7.43134C13.5835 7.80437 13.8541 8.24528 14.0279 8.72689C14.2017 9.20849 14.2751 9.72059 14.2434 10.2316L10.2693 6.25745Z" fill="#DCCB92"/>
</svg>
