<svg width="21" height="21" viewBox="0 0 21 21" fill="none" xmlns="http://www.w3.org/2000/svg">
<path d="M2.90597 8.32666H17.761C17.8763 8.32661 17.9903 8.35048 18.0959 8.39677C18.2015 8.44306 18.2964 8.51076 18.3744 8.59558C18.4525 8.68041 18.5122 8.78051 18.5496 8.88957C18.587 8.99863 18.6014 9.11426 18.5918 9.22916L17.8976 17.5625C17.8803 17.7709 17.7852 17.9651 17.6313 18.1067C17.4774 18.2482 17.2759 18.3268 17.0668 18.3267H3.60014C3.39118 18.3265 3.18989 18.2479 3.03616 18.1064C2.88243 17.9649 2.78748 17.7707 2.77014 17.5625L2.07514 9.22916C2.06557 9.11426 2.07995 8.99863 2.11736 8.88957C2.15478 8.78051 2.21441 8.68041 2.2925 8.59558C2.37059 8.51076 2.46543 8.44306 2.57103 8.39677C2.67663 8.35048 2.79068 8.32661 2.90597 8.32666ZM4.36681 16.66H16.3001L16.856 9.99333H3.81181L4.36681 16.66ZM11.5118 4.99333H17.0001C17.2212 4.99333 17.4331 5.08112 17.5894 5.2374C17.7457 5.39368 17.8335 5.60565 17.8335 5.82666V6.65999H2.83347V4.15999C2.83347 3.93898 2.92127 3.72702 3.07755 3.57074C3.23383 3.41446 3.44579 3.32666 3.66681 3.32666H9.84514L11.5118 4.99333Z" fill="#DCCB92"/>
</svg>
