<svg width="20" height="20" viewBox="0 0 20 20" fill="none" xmlns="http://www.w3.org/2000/svg">
<path d="M9.99996 19.1667C11.6576 19.1667 13.2473 18.5082 14.4194 17.3361C15.5915 16.164 16.25 14.5743 16.25 12.9167C16.25 12.195 16.0583 11.5025 15.8333 10.8583C14.4444 12.2306 13.3888 12.9167 12.6666 12.9167C15.9958 7.08333 14.1666 4.58333 9.16662 1.25C9.58329 5.41667 6.83662 7.31167 5.71829 8.36417C4.80606 9.22223 4.17265 10.3346 3.90019 11.5569C3.62773 12.7793 3.72878 14.0554 4.19024 15.2196C4.65171 16.3839 5.4523 17.3826 6.48821 18.0864C7.52413 18.7902 8.74758 19.1666 9.99996 19.1667ZM10.5916 4.3625C13.2925 6.65417 13.3058 8.435 11.2191 12.0908C10.585 13.2017 11.3875 14.5833 12.6666 14.5833C13.24 14.5833 13.82 14.4167 14.4325 14.0875C14.2509 14.7733 13.9126 15.4076 13.4443 15.9405C12.9759 16.4733 12.3902 16.8902 11.7333 17.1582C11.0765 17.4263 10.3664 17.5381 9.65892 17.4851C8.95147 17.432 8.26599 17.2154 7.65646 16.8524C7.04693 16.4894 6.53 15.9898 6.14636 15.3931C5.76272 14.7963 5.52285 14.1186 5.44564 13.4134C5.36842 12.7082 5.45598 11.9947 5.7014 11.329C5.94682 10.6634 6.34342 10.0638 6.85996 9.5775C6.96496 9.47917 7.49746 9.00667 7.52079 8.98583C7.87412 8.66917 8.16496 8.38833 8.45246 8.08083C9.47746 6.9825 10.2141 5.76417 10.5908 4.3625" fill="#DCCB92"/>
</svg>
