<svg width="20" height="21" viewBox="0 0 20 21" fill="none" xmlns="http://www.w3.org/2000/svg">
<path d="M4.90342 16.3709C4.65342 16.2042 4.43842 15.9917 4.18676 15.6909C4.05614 15.531 3.92669 15.3702 3.79842 15.2084C3.41259 14.7292 3.16926 14.5076 2.91842 14.4167C2.81288 14.3818 2.7154 14.3261 2.63171 14.2529C2.54802 14.1798 2.47982 14.0906 2.43112 13.9906C2.38243 13.8907 2.35422 13.782 2.34816 13.671C2.3421 13.56 2.35832 13.4489 2.39585 13.3443C2.43338 13.2396 2.49147 13.1436 2.5667 13.0617C2.64193 12.9799 2.73277 12.9139 2.83389 12.8677C2.935 12.8215 3.04434 12.796 3.15546 12.7927C3.26658 12.7893 3.37724 12.8083 3.48092 12.8484C4.10759 13.0734 4.53176 13.4609 5.10342 14.1717C5.02509 14.0742 5.38676 14.5276 5.46426 14.6209C5.62259 14.8101 5.73926 14.9251 5.83092 14.9859C6.00092 15.1001 6.32092 15.1492 6.78926 15.1026C6.80926 14.7842 6.86759 14.4751 6.95759 14.1901C4.48426 13.5851 3.08426 11.9901 3.08426 8.86008C3.08426 7.82675 3.39259 6.89675 3.96592 6.11675C3.78426 5.37175 3.81176 4.47091 4.21759 3.45674C4.26365 3.34202 4.33465 3.23899 4.42545 3.1551C4.51626 3.07122 4.62459 3.00858 4.74259 2.97174C4.81009 2.95174 4.84842 2.94258 4.91592 2.93258C5.58509 2.82924 6.53009 3.07424 7.76176 3.84591C8.49572 3.67409 9.24712 3.58795 10.0009 3.58925C10.7609 3.58925 11.5168 3.67591 12.2376 3.84591C13.4684 3.06841 14.4159 2.82341 15.0893 2.93258C15.1604 2.94369 15.2209 2.95758 15.2709 2.97424C15.3866 3.01239 15.4925 3.07544 15.5812 3.15895C15.6699 3.24245 15.7392 3.34439 15.7843 3.45758C16.1901 4.47091 16.2176 5.37091 16.0359 6.11591C16.6118 6.89591 16.9176 7.82008 16.9176 8.86008C16.9176 11.9909 15.5226 13.5809 13.0493 14.1867C13.1534 14.5326 13.2076 14.9184 13.2076 15.3367C13.2076 15.8909 13.2059 16.4192 13.2018 17.0117C13.2018 17.1701 13.2001 17.3401 13.1976 17.6001C13.3848 17.6408 13.5522 17.7448 13.6717 17.8945C13.7912 18.0442 13.8554 18.2305 13.8537 18.422C13.8519 18.6135 13.7842 18.7986 13.662 18.9461C13.5398 19.0936 13.3705 19.1945 13.1826 19.2317C12.2326 19.4209 11.5293 18.7884 11.5293 17.9609L11.5309 17.5884L11.5351 17.0009C11.5393 16.4117 11.5418 15.8867 11.5418 15.3367C11.5418 14.7559 11.3884 14.3767 11.1868 14.2026C10.6359 13.7276 10.9151 12.8242 11.6376 12.7434C14.1093 12.4659 15.2509 11.5084 15.2509 8.86008C15.2509 8.06425 14.9909 7.40674 14.4901 6.85675C14.3847 6.74086 14.3141 6.59762 14.2864 6.44345C14.2587 6.28927 14.275 6.13041 14.3334 5.98508C14.4718 5.64008 14.5301 5.18758 14.4126 4.64008L14.4043 4.64258C13.9951 4.75841 13.4793 5.00924 12.8559 5.43341C12.7554 5.50162 12.6412 5.54704 12.5213 5.56647C12.4014 5.5859 12.2787 5.57889 12.1618 5.54591C11.4584 5.35088 10.7317 5.25303 10.0018 5.25508C9.26009 5.25508 8.52509 5.35341 7.84176 5.54675C7.7254 5.57933 7.60334 5.58622 7.48405 5.56694C7.36476 5.54766 7.25109 5.50267 7.15092 5.43508C6.52342 5.01258 6.00592 4.76258 5.59259 4.64591C5.47342 5.19008 5.53259 5.64091 5.67009 5.98508C5.72826 6.13038 5.74434 6.28912 5.71649 6.44313C5.68863 6.59714 5.61797 6.74019 5.51259 6.85591C5.01509 7.40175 4.75176 8.07091 4.75176 8.85924C4.75176 11.5026 5.89426 12.4659 8.35342 12.7426C9.07426 12.8234 9.35509 13.7234 8.80759 14.1992C8.64676 14.3392 8.44926 14.8092 8.44926 15.3359V17.9609C8.44926 18.7817 7.75426 19.3984 6.81592 19.2342C6.62573 19.2009 6.45303 19.1024 6.32735 18.9558C6.20168 18.8092 6.13081 18.6235 6.12688 18.4305C6.12294 18.2374 6.18617 18.0489 6.30577 17.8973C6.42537 17.7457 6.59391 17.6404 6.78259 17.5992V16.7742C6.02426 16.8251 5.39842 16.7009 4.90426 16.3701" fill="white"/>
</svg>
