<svg width="20" height="20" viewBox="0 0 20 20" fill="none" xmlns="http://www.w3.org/2000/svg">
<path d="M12.5041 1.66916C13.0892 1.66917 13.664 1.82321 14.1707 2.11577C14.6774 2.40834 15.0982 2.82914 15.3908 3.33586C15.6833 3.84259 15.8373 4.4174 15.8373 5.00251C15.8373 5.58763 15.6833 6.16244 15.3907 6.66916H19.1707V8.33583H17.5041V16.6692C17.5041 16.8902 17.4163 17.1021 17.26 17.2584C17.1037 17.4147 16.8918 17.5025 16.6707 17.5025H3.3374C3.11639 17.5025 2.90443 17.4147 2.74815 17.2584C2.59187 17.1021 2.50407 16.8902 2.50407 16.6692V8.33583H0.837402V6.66916H4.61657C4.20214 5.95312 4.06881 5.10854 4.24249 4.29965C4.41617 3.49076 4.88445 2.77537 5.55629 2.29256C6.22812 1.80975 7.0555 1.59404 7.87755 1.68736C8.69959 1.78068 9.45756 2.17637 10.0041 2.79749C10.3161 2.44211 10.7005 2.15757 11.1316 1.96296C11.5626 1.76835 12.0303 1.66818 12.5032 1.66916M9.1699 8.33583H4.1699V15.8358H9.1699V8.33583ZM15.8366 8.33583H10.8366V15.8358H15.8366V8.33583ZM7.50324 3.33583C7.07272 3.33684 6.6593 3.50441 6.34957 3.80343C6.03985 4.10246 5.85784 4.50973 5.84169 4.93994C5.82553 5.37015 5.97647 5.78993 6.2629 6.11134C6.54932 6.43275 6.94901 6.63085 7.37824 6.66416L7.50324 6.66916H9.1699V5.00249C9.16992 4.60421 9.02731 4.21909 8.7679 3.91687C8.50848 3.61466 8.14942 3.41533 7.75574 3.35499L7.6274 3.33999L7.50324 3.33583ZM12.5032 3.33583C12.0828 3.33569 11.6778 3.4945 11.3694 3.78041C11.0611 4.06632 10.8723 4.4582 10.8407 4.87749L10.8366 5.00249V6.66916H12.5032C12.9236 6.66908 13.3284 6.51018 13.6365 6.2243C13.9446 5.93841 14.1334 5.54665 14.1649 5.12749L14.1699 5.00249C14.1699 4.56047 13.9943 4.13654 13.6817 3.82398C13.3692 3.51142 12.9453 3.33583 12.5032 3.33583Z" fill="#DCCB92"/>
</svg>
