<svg width="33" height="33" viewBox="0 0 33 33" fill="none" xmlns="http://www.w3.org/2000/svg">
<path d="M26.7906 3.49316C27.1442 3.49316 27.4834 3.63364 27.7334 3.88369C27.9835 4.13374 28.1239 4.47288 28.1239 4.8265V11.4932C28.1239 11.8468 27.9835 12.1859 27.7334 12.436C27.4834 12.686 27.1442 12.8265 26.7906 12.8265H20.1239V30.1598C20.1239 30.5135 19.9835 30.8526 19.7334 31.1026C19.4834 31.3527 19.1442 31.4932 18.7906 31.4932H13.4573C13.1037 31.4932 12.7645 31.3527 12.5145 31.1026C12.2644 30.8526 12.1239 30.5135 12.1239 30.1598V12.8265H4.79061C4.43699 12.8265 4.09785 12.686 3.8478 12.436C3.59775 12.1859 3.45728 11.8468 3.45728 11.4932V8.31716C3.45741 8.06962 3.52645 7.82699 3.65668 7.61646C3.7869 7.40594 3.97317 7.23582 4.19461 7.12516L11.4573 3.49316H26.7906ZM20.1239 6.15983H12.0866L6.12394 9.14116V10.1598H14.7906V28.8265H17.4573V10.1598H20.1239V6.15983ZM25.4573 6.15983H22.7906V10.1598H25.4573V6.15983Z" fill="#282A36"/>
</svg>
