<svg width="33" height="32" viewBox="0 0 33 32" fill="none" xmlns="http://www.w3.org/2000/svg">
<path d="M27.0001 2.66675C27.3537 2.66675 27.6928 2.80722 27.9429 3.05727C28.1929 3.30732 28.3334 3.64646 28.3334 4.00008V10.6667C28.3334 11.0204 28.1929 11.3595 27.9429 11.6096C27.6928 11.8596 27.3537 12.0001 27.0001 12.0001H20.3334V29.3334C20.3334 29.687 20.1929 30.0262 19.9429 30.2762C19.6928 30.5263 19.3537 30.6667 19.0001 30.6667H13.6667C13.3131 30.6667 12.974 30.5263 12.7239 30.2762C12.4739 30.0262 12.3334 29.687 12.3334 29.3334V12.0001H5.00008C4.64646 12.0001 4.30732 11.8596 4.05727 11.6096C3.80722 11.3595 3.66675 11.0204 3.66675 10.6667V7.49075C3.66688 7.2432 3.73593 7.00057 3.86615 6.79005C3.99638 6.57952 4.18264 6.4094 4.40408 6.29875L11.6667 2.66675H27.0001ZM20.3334 5.33341H12.2961L6.33341 8.31475V9.33341H15.0001V28.0001H17.6667V9.33341H20.3334V5.33341ZM25.6667 5.33341H23.0001V9.33341H25.6667V5.33341Z" fill="#DCCB92"/>
</svg>
