<svg width="20" height="20" viewBox="0 0 20 20" fill="none" xmlns="http://www.w3.org/2000/svg">
<path d="M9.99984 18.3334C5.39734 18.3334 1.6665 14.6025 1.6665 10C1.6665 5.39752 5.39734 1.66669 9.99984 1.66669C14.6023 1.66669 18.3332 5.39752 18.3332 10C18.3332 14.6025 14.6023 18.3334 9.99984 18.3334ZM9.99984 16.6667C11.7679 16.6667 13.4636 15.9643 14.7139 14.7141C15.9641 13.4638 16.6665 11.7681 16.6665 10C16.6665 8.23191 15.9641 6.53622 14.7139 5.28598C13.4636 4.03573 11.7679 3.33335 9.99984 3.33335C8.23173 3.33335 6.53603 4.03573 5.28579 5.28598C4.03555 6.53622 3.33317 8.23191 3.33317 10C3.33317 11.7681 4.03555 13.4638 5.28579 14.7141C6.53603 15.9643 8.23173 16.6667 9.99984 16.6667ZM10.8332 8.75002V12.5H11.6665V14.1667H8.33317V12.5H9.1665V10.4167H8.33317V8.75002H10.8332ZM11.2498 6.66669C11.2498 6.99821 11.1181 7.31615 10.8837 7.55057C10.6493 7.78499 10.3314 7.91669 9.99984 7.91669C9.66832 7.91669 9.35037 7.78499 9.11595 7.55057C8.88153 7.31615 8.74984 6.99821 8.74984 6.66669C8.74984 6.33517 8.88153 6.01722 9.11595 5.7828C9.35037 5.54838 9.66832 5.41669 9.99984 5.41669C10.3314 5.41669 10.6493 5.54838 10.8837 5.7828C11.1181 6.01722 11.2498 6.33517 11.2498 6.66669Z" fill="#575449"/>
</svg>
