<svg width="21" height="20" viewBox="0 0 21 20" fill="none" xmlns="http://www.w3.org/2000/svg">
<path d="M9.46502 9.85663L16.0059 3.3158L17.1842 4.49413L16.0059 5.6733L18.0675 7.73496L16.8892 8.91413L14.8267 6.85163L13.6484 8.02996L15.4159 9.79746L14.2375 10.9766L12.47 9.2083L10.6434 11.035C11.2096 11.8967 11.4363 12.9376 11.2798 13.9567C11.1233 14.9759 10.5946 15.9008 9.79591 16.5529C8.99722 17.2049 7.9852 17.5379 6.95537 17.4873C5.92554 17.4367 4.951 17.0063 4.22002 16.2791C3.48856 15.5492 3.05444 14.5735 3.00196 13.5414C2.94948 12.5094 3.28238 11.4946 3.93602 10.6943C4.58967 9.89388 5.51741 9.36494 6.53913 9.21015C7.56085 9.05536 8.60363 9.28577 9.46502 9.85663ZM8.93419 15.1008C9.17695 14.8712 9.37121 14.5952 9.5055 14.2892C9.63979 13.9832 9.71137 13.6534 9.71602 13.3193C9.72066 12.9852 9.65828 12.6535 9.53255 12.3439C9.40683 12.0343 9.22031 11.7531 8.98403 11.5168C8.74774 11.2805 8.46649 11.094 8.15689 10.9683C7.84728 10.8425 7.51562 10.7802 7.1815 10.7848C6.84737 10.7894 6.51757 10.861 6.21159 10.9953C5.9056 11.1296 5.62964 11.3239 5.40002 11.5666C4.94462 12.0381 4.69264 12.6696 4.69833 13.3251C4.70403 13.9806 4.96695 14.6077 5.43047 15.0712C5.89399 15.5347 6.52102 15.7976 7.17652 15.8033C7.83201 15.809 8.46351 15.557 8.93502 15.1016" fill="#DCCB92"/>
</svg>
