<svg width="33" height="33" viewBox="0 0 33 33" fill="none" xmlns="http://www.w3.org/2000/svg">
<path d="M14.9679 16.5972L25.4332 6.13184L27.3186 8.01717L25.4332 9.90384L28.7319 13.2025L26.8466 15.0892L23.5466 11.7892L21.6612 13.6745L24.4892 16.5025L22.6039 18.3892L19.7759 15.5598L16.8532 18.4825C17.7592 19.8612 18.122 21.5267 17.8715 23.1573C17.6211 24.7879 16.7752 26.2678 15.4973 27.3111C14.2194 28.3545 12.6002 28.8871 10.9525 28.8062C9.30474 28.7253 7.74547 28.0366 6.57591 26.8732C5.40557 25.7052 4.71098 24.1441 4.62702 22.4928C4.54305 20.8416 5.07569 19.218 6.12152 17.9374C7.16735 16.6568 8.65174 15.8105 10.2865 15.5628C11.9212 15.3151 13.5897 15.6838 14.9679 16.5972ZM14.1186 24.9878C14.507 24.6204 14.8178 24.1789 15.0327 23.6893C15.2475 23.1998 15.3621 22.6721 15.3695 22.1375C15.3769 21.6029 15.2771 21.0722 15.076 20.5768C14.8748 20.0815 14.5764 19.6315 14.1983 19.2534C13.8203 18.8754 13.3703 18.5769 12.8749 18.3758C12.3795 18.1746 11.8489 18.0748 11.3143 18.0822C10.7797 18.0897 10.252 18.2042 9.76241 18.4191C9.27284 18.6339 8.8313 18.9447 8.46391 19.3332C7.73527 20.0876 7.3321 21.098 7.34121 22.1468C7.35032 23.1956 7.771 24.1988 8.51263 24.9404C9.25426 25.6821 10.2575 26.1028 11.3063 26.1119C12.3551 26.121 13.3655 25.7178 14.1199 24.9892" fill="#282A36"/>
</svg>
