<svg width="32" height="32" viewBox="0 0 32 32" fill="none" xmlns="http://www.w3.org/2000/svg">
<path d="M8 10.6666V9.33331C8 7.21158 8.84285 5.17675 10.3431 3.67646C11.8434 2.17617 13.8783 1.33331 16 1.33331C18.1217 1.33331 20.1566 2.17617 21.6569 3.67646C23.1571 5.17675 24 7.21158 24 9.33331V10.6666H26.6667C27.0203 10.6666 27.3594 10.8071 27.6095 11.0572C27.8595 11.3072 28 11.6464 28 12V28C28 28.3536 27.8595 28.6927 27.6095 28.9428C27.3594 29.1928 27.0203 29.3333 26.6667 29.3333H5.33333C4.97971 29.3333 4.64057 29.1928 4.39052 28.9428C4.14048 28.6927 4 28.3536 4 28V12C4 11.6464 4.14048 11.3072 4.39052 11.0572C4.64057 10.8071 4.97971 10.6666 5.33333 10.6666H8ZM25.3333 13.3333H6.66667V26.6666H25.3333V13.3333ZM14.6667 20.976C14.1583 20.6825 13.761 20.2294 13.5364 19.6871C13.3118 19.1447 13.2724 18.5435 13.4243 17.9765C13.5762 17.4095 13.911 16.9084 14.3767 16.5511C14.8424 16.1937 15.413 16 16 16C16.587 16 17.1576 16.1937 17.6233 16.5511C18.089 16.9084 18.4238 17.4095 18.5757 17.9765C18.7276 18.5435 18.6882 19.1447 18.4636 19.6871C18.239 20.2294 17.8417 20.6825 17.3333 20.976V24H14.6667V20.976ZM10.6667 10.6666H21.3333V9.33331C21.3333 7.91883 20.7714 6.56227 19.7712 5.56208C18.771 4.56188 17.4145 3.99998 16 3.99998C14.5855 3.99998 13.229 4.56188 12.2288 5.56208C11.2286 6.56227 10.6667 7.91883 10.6667 9.33331V10.6666Z" fill="#DCCB92"/>
</svg>
