<svg width="20" height="20" viewBox="0 0 20 20" fill="none" xmlns="http://www.w3.org/2000/svg">
<path d="M15.8333 8.33335H16.6667C16.8877 8.33335 17.0996 8.42115 17.2559 8.57743C17.4122 8.73371 17.5 8.94567 17.5 9.16669V17.5C17.5 17.721 17.4122 17.933 17.2559 18.0893C17.0996 18.2456 16.8877 18.3334 16.6667 18.3334H3.33333C3.11232 18.3334 2.90036 18.2456 2.74408 18.0893C2.5878 17.933 2.5 17.721 2.5 17.5V9.16669C2.5 8.94567 2.5878 8.73371 2.74408 8.57743C2.90036 8.42115 3.11232 8.33335 3.33333 8.33335H4.16667V7.50002C4.16667 5.95292 4.78125 4.46919 5.87521 3.37523C6.96917 2.28127 8.4529 1.66669 10 1.66669C11.5471 1.66669 13.0308 2.28127 14.1248 3.37523C15.2188 4.46919 15.8333 5.95292 15.8333 7.50002V8.33335ZM4.16667 10V16.6667H15.8333V10H4.16667ZM9.16667 11.6667H10.8333V15H9.16667V11.6667ZM14.1667 8.33335V7.50002C14.1667 6.39495 13.7277 5.33514 12.9463 4.55374C12.1649 3.77234 11.1051 3.33335 10 3.33335C8.89493 3.33335 7.83512 3.77234 7.05372 4.55374C6.27232 5.33514 5.83333 6.39495 5.83333 7.50002V8.33335H14.1667Z" fill="#DCCB92"/>
</svg>
