<svg width="21" height="21" viewBox="0 0 21 21" fill="none" xmlns="http://www.w3.org/2000/svg">
<path d="M5.66675 7.49325V6.65991C5.66675 5.33383 6.19353 4.06206 7.13121 3.12438C8.0689 2.1867 9.34067 1.65991 10.6667 1.65991C11.9928 1.65991 13.2646 2.1867 14.2023 3.12438C15.14 4.06206 15.6667 5.33383 15.6667 6.65991V7.49325H17.3334C17.5544 7.49325 17.7664 7.58104 17.9227 7.73732C18.079 7.8936 18.1667 8.10557 18.1667 8.32658V18.3266C18.1667 18.5476 18.079 18.7596 17.9227 18.9158C17.7664 19.0721 17.5544 19.1599 17.3334 19.1599H4.00008C3.77907 19.1599 3.56711 19.0721 3.41083 18.9158C3.25455 18.7596 3.16675 18.5476 3.16675 18.3266V8.32658C3.16675 8.10557 3.25455 7.8936 3.41083 7.73732C3.56711 7.58104 3.77907 7.49325 4.00008 7.49325H5.66675ZM16.5001 9.15991H4.83341V17.4932H16.5001V9.15991ZM9.83341 13.9366C9.5157 13.7531 9.26739 13.47 9.12701 13.131C8.98662 12.7921 8.96199 12.4163 9.05695 12.0619C9.1519 11.7075 9.36113 11.3944 9.65219 11.171C9.94325 10.9477 10.2999 10.8266 10.6667 10.8266C11.0336 10.8266 11.3902 10.9477 11.6813 11.171C11.9724 11.3944 12.1816 11.7075 12.2765 12.0619C12.3715 12.4163 12.3469 12.7921 12.2065 13.131C12.0661 13.47 11.8178 13.7531 11.5001 13.9366V15.8266H9.83341V13.9366ZM7.33341 7.49325H14.0001V6.65991C14.0001 5.77586 13.6489 4.92801 13.0238 4.30289C12.3986 3.67777 11.5508 3.32658 10.6667 3.32658C9.78269 3.32658 8.93485 3.67777 8.30973 4.30289C7.6846 4.92801 7.33341 5.77586 7.33341 6.65991V7.49325Z" fill="#DCCB92"/>
</svg>
