<svg width="20" height="21" viewBox="0 0 20 21" fill="none" xmlns="http://www.w3.org/2000/svg">
<path d="M10.0001 4.15983C8.91281 4.15889 7.84184 4.42423 6.88077 4.93266C5.91969 5.44109 5.09774 6.17714 4.48675 7.0765H6.66675V8.74317H1.66675V3.74317H3.33341V5.8265C4.10874 4.79057 5.11509 3.94984 6.27242 3.37118C7.42975 2.79251 8.70614 2.49187 10.0001 2.49317C14.6026 2.49317 18.3334 6.224 18.3334 10.8265H16.6667C16.6667 9.05839 15.9644 7.3627 14.7141 6.11246C13.4639 4.86221 11.7682 4.15983 10.0001 4.15983ZM3.33341 10.8265C3.33299 12.2523 3.78972 13.6408 4.63655 14.7879C5.48338 15.935 6.67568 16.7805 8.03841 17.2C9.40113 17.6196 10.8625 17.5912 12.2079 17.119C13.5532 16.6468 14.7118 15.7557 15.5134 14.5765H13.3334V12.9098H18.3334V17.9098H16.6667V15.8265C15.8914 16.8624 14.8851 17.7032 13.7277 18.2818C12.5704 18.8605 11.294 19.1611 10.0001 19.1598C5.39758 19.1598 1.66675 15.429 1.66675 10.8265H3.33341Z" fill="#DCCB92"/>
</svg>
