<svg width="21" height="20" viewBox="0 0 21 20" fill="none" xmlns="http://www.w3.org/2000/svg">
<path d="M17.1665 14.1667H18.8332V15.8334H2.1665V14.1667H3.83317V8.33335C3.83317 6.56524 4.53555 4.86955 5.78579 3.61931C7.03603 2.36907 8.73173 1.66669 10.4998 1.66669C12.2679 1.66669 13.9636 2.36907 15.2139 3.61931C16.4641 4.86955 17.1665 6.56524 17.1665 8.33335V14.1667ZM15.4998 14.1667V8.33335C15.4998 7.00727 14.9731 5.7355 14.0354 4.79782C13.0977 3.86014 11.8259 3.33335 10.4998 3.33335C9.17375 3.33335 7.90199 3.86014 6.9643 4.79782C6.02662 5.7355 5.49984 7.00727 5.49984 8.33335V14.1667H15.4998ZM7.99984 17.5H12.9998V19.1667H7.99984V17.5Z" fill="white"/>
</svg>
