<svg width="20" height="20" viewBox="0 0 20 20" fill="none" xmlns="http://www.w3.org/2000/svg">
<path d="M16.6665 14.1667H18.3332V15.8334H1.6665V14.1667H3.33317V8.33335C3.33317 6.56524 4.03555 4.86955 5.28579 3.61931C6.53603 2.36907 8.23173 1.66669 9.99984 1.66669C11.7679 1.66669 13.4636 2.36907 14.7139 3.61931C15.9641 4.86955 16.6665 6.56524 16.6665 8.33335V14.1667ZM14.9998 14.1667V8.33335C14.9998 7.00727 14.4731 5.7355 13.5354 4.79782C12.5977 3.86014 11.3259 3.33335 9.99984 3.33335C8.67375 3.33335 7.40199 3.86014 6.4643 4.79782C5.52662 5.7355 4.99984 7.00727 4.99984 8.33335V14.1667H14.9998ZM7.49984 17.5H12.4998V19.1667H7.49984V17.5Z" fill="#DCCB92"/>
</svg>
