<svg width="20" height="21" viewBox="0 0 20 21" fill="none" xmlns="http://www.w3.org/2000/svg">
<path d="M5.83333 4.99325C5.83333 4.10919 6.18452 3.26134 6.80964 2.63622C7.43476 2.0111 8.28261 1.65991 9.16667 1.65991C10.0507 1.65991 10.8986 2.0111 11.5237 2.63622C12.1488 3.26134 12.5 4.10919 12.5 4.99325H16.6667C16.8877 4.99325 17.0996 5.08104 17.2559 5.23732C17.4122 5.3936 17.5 5.60556 17.5 5.82658V9.30158C17.5001 9.43495 17.4683 9.5664 17.4071 9.6849C17.3459 9.80339 17.2571 9.90547 17.1483 9.98254C17.0394 10.0596 16.9137 10.1095 16.7816 10.1278C16.6495 10.1462 16.5149 10.1327 16.3892 10.0882C16.1378 9.99976 15.869 9.97283 15.6051 10.0097C15.3412 10.0466 15.09 10.1462 14.8725 10.3001C14.6551 10.4541 14.4777 10.658 14.3553 10.8947C14.2329 11.1313 14.169 11.3939 14.169 11.6603C14.169 11.9268 14.2329 12.1893 14.3553 12.426C14.4777 12.6627 14.6551 12.8665 14.8725 13.0205C15.09 13.1745 15.3412 13.2741 15.6051 13.311C15.869 13.3478 16.1378 13.3209 16.3892 13.2324C16.5148 13.188 16.6492 13.1744 16.7812 13.1928C16.9131 13.2111 17.0388 13.2607 17.1476 13.3376C17.2564 13.4145 17.3452 13.5164 17.4065 13.6347C17.4678 13.7529 17.4999 13.8842 17.5 14.0174V17.4932C17.5 17.7143 17.4122 17.9262 17.2559 18.0825C17.0996 18.2388 16.8877 18.3266 16.6667 18.3266H3.33333C3.11232 18.3266 2.90036 18.2388 2.74408 18.0825C2.5878 17.9262 2.5 17.7143 2.5 17.4932V5.82658C2.5 5.60556 2.5878 5.3936 2.74408 5.23732C2.90036 5.08104 3.11232 4.99325 3.33333 4.99325H5.83333ZM9.16667 3.32658C8.89997 3.32651 8.63716 3.39045 8.40029 3.51301C8.16343 3.63558 7.95944 3.8132 7.80546 4.03095C7.65147 4.24869 7.55199 4.50022 7.51537 4.76439C7.47875 5.02855 7.50606 5.29765 7.595 5.54908C7.63941 5.67483 7.65299 5.80941 7.6346 5.94151C7.61621 6.0736 7.56638 6.19935 7.4893 6.30819C7.41222 6.41703 7.31015 6.50578 7.19165 6.56698C7.07316 6.62819 6.9417 6.66006 6.80833 6.65991H4.16667V16.6599H15.8333V14.9932C14.9493 14.9932 14.1014 14.6421 13.4763 14.0169C12.8512 13.3918 12.5 12.544 12.5 11.6599C12.5 10.7759 12.8512 9.92801 13.4763 9.30289C14.1014 8.67777 14.9493 8.32658 15.8333 8.32658V6.65991H11.525C11.3916 6.66006 11.2602 6.62819 11.1417 6.56698C11.0232 6.50578 10.9211 6.41703 10.844 6.30819C10.767 6.19935 10.7171 6.0736 10.6987 5.94151C10.6803 5.80941 10.6939 5.67483 10.7383 5.54908C10.8017 5.37575 10.8333 5.19047 10.8333 4.99325C10.8333 4.55122 10.6577 4.12729 10.3452 3.81473C10.0326 3.50217 9.60869 3.32658 9.16667 3.32658Z" fill="#DCCB92"/>
</svg>
