<svg width="33" height="33" viewBox="0 0 33 33" fill="none" xmlns="http://www.w3.org/2000/svg">
<g clip-path="url(#clip0_297_127)">
<path d="M21.2933 27.5001C20.4116 29.6101 18.7339 31.2877 16.6239 32.1694C14.5139 31.2877 12.8363 29.6101 11.9546 27.5001H14.9679C15.4026 28.1508 15.9639 28.7161 16.6239 29.1574C17.2839 28.7174 17.8453 28.1508 18.2799 27.5001H21.2933ZM24.6239 20.5734L27.2906 23.5974V26.1668H5.95728V23.5974L8.62394 20.5734V12.8334C8.62394 8.18944 11.9626 4.23744 16.6239 2.77344C21.2853 4.23744 24.6239 8.18944 24.6239 12.8334V20.5734ZM23.6506 23.5001L21.9573 21.5801V12.8334C21.9573 9.74277 19.8639 6.92677 16.6239 5.60544C13.3839 6.92544 11.2906 9.74277 11.2906 12.8321V21.5801L9.59728 23.5001H23.6506ZM16.6239 15.5001C15.9167 15.5001 15.2384 15.2192 14.7383 14.7191C14.2382 14.219 13.9573 13.5407 13.9573 12.8334C13.9573 12.1262 14.2382 11.4479 14.7383 10.9478C15.2384 10.4477 15.9167 10.1668 16.6239 10.1668C17.3312 10.1668 18.0095 10.4477 18.5096 10.9478C19.0097 11.4479 19.2906 12.1262 19.2906 12.8334C19.2906 13.5407 19.0097 14.219 18.5096 14.7191C18.0095 15.2192 17.3312 15.5001 16.6239 15.5001Z" fill="#282A36"/>
</g>
<defs>
<clipPath id="clip0_297_127">
<rect width="32" height="32" fill="white" transform="translate(0.624023 0.82666)"/>
</clipPath>
</defs>
</svg>
