<svg width="33" height="33" viewBox="0 0 33 33" fill="none" xmlns="http://www.w3.org/2000/svg">
<path d="M9.91618 6.15983V27.4932H23.2495V6.15983H9.91618ZM8.58284 3.49316H24.5828C24.9365 3.49316 25.2756 3.63364 25.5257 3.88369C25.7757 4.13374 25.9162 4.47288 25.9162 4.8265V28.8265C25.9162 29.1801 25.7757 29.5193 25.5257 29.7693C25.2756 30.0194 24.9365 30.1598 24.5828 30.1598H8.58284C8.22922 30.1598 7.89008 30.0194 7.64004 29.7693C7.38999 29.5193 7.24951 29.1801 7.24951 28.8265V4.8265C7.24951 4.47288 7.38999 4.13374 7.64004 3.88369C7.89008 3.63364 8.22922 3.49316 8.58284 3.49316ZM16.5828 23.4932C16.9365 23.4932 17.2756 23.6336 17.5257 23.8837C17.7757 24.1337 17.9162 24.4729 17.9162 24.8265C17.9162 25.1801 17.7757 25.5193 17.5257 25.7693C17.2756 26.0194 16.9365 26.1598 16.5828 26.1598C16.2292 26.1598 15.8901 26.0194 15.64 25.7693C15.39 25.5193 15.2495 25.1801 15.2495 24.8265C15.2495 24.4729 15.39 24.1337 15.64 23.8837C15.8901 23.6336 16.2292 23.4932 16.5828 23.4932Z" fill="#282A36"/>
</svg>
