<svg width="32" height="32" viewBox="0 0 32 32" fill="none" xmlns="http://www.w3.org/2000/svg">
<path d="M16 1.33331L26.956 3.76798C27.2521 3.8338 27.5169 3.9986 27.7067 4.23519C27.8965 4.47177 27.9999 4.766 28 5.06931V18.3853C27.9999 19.7023 27.6747 20.9989 27.0532 22.16C26.4317 23.3211 25.5332 24.3108 24.4373 25.0413L16 30.6666L7.56267 25.0413C6.46703 24.311 5.56861 23.3214 4.94713 22.1606C4.32565 20.9997 4.00032 19.7034 4 18.3866V5.06931C4.00005 4.766 4.10352 4.47177 4.29332 4.23519C4.48312 3.9986 4.74792 3.8338 5.044 3.76798L16 1.33331ZM16 4.06531L6.66667 6.13865V18.3853C6.66668 19.2633 6.88343 20.1276 7.29768 20.9017C7.71193 21.6758 8.31087 22.3356 9.04133 22.8226L16 27.4626L22.9587 22.8226C23.6889 22.3357 24.2878 21.6761 24.702 20.9023C25.1162 20.1285 25.3331 19.2644 25.3333 18.3866V6.13865L16 4.06531ZM16 9.33331C16.5871 9.33305 17.1579 9.52655 17.6238 9.88379C18.0897 10.241 18.4247 10.7421 18.5768 11.3091C18.7289 11.8762 18.6896 12.4776 18.465 13.0201C18.2405 13.5626 17.8431 14.0157 17.3347 14.3093L17.3333 20H14.6667V14.3093C14.1583 14.0158 13.761 13.5627 13.5364 13.0204C13.3118 12.4781 13.2724 11.8768 13.4243 11.3098C13.5762 10.7428 13.911 10.2418 14.3767 9.8844C14.8424 9.52705 15.413 9.33334 16 9.33331Z" fill="#DCCB92"/>
</svg>
