<svg width="20" height="20" viewBox="0 0 20 20" fill="none" xmlns="http://www.w3.org/2000/svg">
<path d="M14.2452 5.95501C14.7393 5.77584 14.9852 5.71168 15.1202 5.68834C15.1213 5.73279 15.1207 5.76668 15.1185 5.79001C14.9252 7.82668 14.076 12.8375 13.6393 15.1692C13.5377 15.715 13.4593 15.975 12.931 15.665C12.5843 15.4608 12.271 15.2042 11.9343 14.9842C10.8302 14.26 9.25018 13.1825 9.38018 13.2475C8.29352 12.5308 8.74852 12.0925 9.35518 11.5075C9.45268 11.4133 9.55518 11.315 9.65518 11.2108C9.70018 11.1642 9.91935 10.9608 10.2277 10.6733C11.2177 9.75334 13.131 7.97418 13.1793 7.76834C13.1877 7.73501 13.1943 7.60834 13.1202 7.54251C13.0452 7.47584 12.9343 7.49834 12.8552 7.51668C12.7424 7.54223 10.9441 8.73084 7.46018 11.0825C6.95018 11.4325 6.48796 11.6031 6.07352 11.5942L6.07768 11.5967C5.53185 11.4042 4.98768 11.2383 4.44102 11.0717C4.07875 10.9629 3.71762 10.8504 3.35768 10.7342L3.10102 10.6525C6.87352 9.00918 9.38602 7.92751 10.6452 7.40334C12.4735 6.64251 13.5585 6.20501 14.2452 5.95501ZM16.2643 4.34834C16.087 4.20783 15.8802 4.10926 15.6593 4.06001C15.4927 4.02001 15.3343 4.00751 15.2152 4.01001C14.8177 4.01668 14.3918 4.12918 13.6768 4.38834C12.9477 4.65334 11.8277 5.10668 10.0052 5.86418C8.71907 6.39918 6.16296 7.50029 2.33685 9.16751C2.00018 9.30168 1.69268 9.45418 1.44935 9.63418C1.22435 9.80168 0.910182 10.1008 0.852682 10.5592C0.809349 10.9058 0.910182 11.2258 1.11518 11.4783C1.29352 11.6975 1.52185 11.8308 1.69602 11.915C1.95435 12.04 2.30268 12.1492 2.60852 12.245C3.08602 12.395 3.56185 12.5475 4.04102 12.6942C5.52268 13.1475 6.74268 13.5208 8.08435 14.4058C9.06852 15.0542 10.0343 15.7308 11.0202 16.3775C11.3802 16.6133 11.716 16.8842 12.0868 17.1025C12.4935 17.34 13.0085 17.5575 13.6368 17.5C14.5852 17.4125 15.0785 16.54 15.2785 15.475C15.7127 13.15 16.576 8.07001 16.7785 5.94834C16.797 5.70215 16.7867 5.45463 16.7477 5.21084C16.6983 4.87362 16.5262 4.56649 16.2643 4.34834Z" fill="#DCCB92"/>
</svg>
