<svg width="20" height="21" viewBox="0 0 20 21" fill="none" xmlns="http://www.w3.org/2000/svg">
<path d="M3.33341 10.8265C3.33341 9.0315 4.04258 7.40233 5.19591 6.204C5.29758 6.2965 5.38508 6.414 5.45091 6.56233C5.62091 6.94316 5.62091 7.33566 5.62091 7.68316C5.62091 7.9565 5.62091 8.2165 5.70841 8.404C5.82841 8.66066 6.34675 8.77066 6.80425 8.86566L6.82091 8.86983C6.97925 8.90316 7.14175 8.9365 7.29008 8.97816C7.71175 9.09483 8.03841 9.474 8.29925 9.77816C8.40758 9.904 8.56841 10.0898 8.64925 10.1365C8.69091 10.1065 8.82508 9.96066 8.89091 9.7215C8.94258 9.53816 8.92758 9.3765 8.85341 9.28816C8.38675 8.73816 8.41258 7.67983 8.55675 7.289C8.78341 6.67316 9.49175 6.719 10.0101 6.75233H10.0151C10.2067 6.76483 10.3867 6.77733 10.5217 6.75983C10.9142 6.70983 11.1009 6.2465 11.2176 5.9565C11.2551 5.864 11.2851 5.789 11.3126 5.7515C11.5334 5.449 12.1659 5.00816 12.6267 4.69733C13.4856 5.06641 14.2575 5.61155 14.8925 6.29754C15.5275 6.98353 16.0116 7.7951 16.3134 8.67983C17.0173 8.91951 17.6761 9.27525 18.2626 9.73233C17.7267 5.64733 14.2317 2.49316 10.0001 2.49316C5.39758 2.49316 1.66675 6.224 1.66675 10.8265C1.66675 15.0582 4.82091 18.5532 8.90591 19.089C8.44884 18.5025 8.09309 17.8437 7.85341 17.1398C6.53501 16.6914 5.39011 15.8414 4.57945 14.7091C3.76879 13.5768 3.33305 12.2191 3.33341 10.8265ZM14.1667 11.6598C13.2827 11.6598 12.4348 12.011 11.8097 12.6361C11.1846 13.2613 10.8334 14.1091 10.8334 14.9932C10.8334 15.8772 11.1846 16.7251 11.8097 17.3502C12.4348 17.9753 13.2827 18.3265 14.1667 18.3265C15.0508 18.3265 15.8986 17.9753 16.5238 17.3502C17.1489 16.7251 17.5001 15.8772 17.5001 14.9932C17.5001 14.1091 17.1489 13.2613 16.5238 12.6361C15.8986 12.011 15.0508 11.6598 14.1667 11.6598ZM9.16675 14.9932C9.16675 14.3366 9.29608 13.6864 9.54735 13.0797C9.79862 12.4731 10.1669 11.9219 10.6312 11.4576C11.0955 10.9933 11.6467 10.625 12.2533 10.3738C12.86 10.1225 13.5101 9.99316 14.1667 9.99316C14.8234 9.99316 15.4735 10.1225 16.0802 10.3738C16.6868 10.625 17.238 10.9933 17.7023 11.4576C18.1666 11.9219 18.5349 12.4731 18.7861 13.0797C19.0374 13.6864 19.1667 14.3366 19.1667 14.9932C19.1667 16.3192 18.64 17.591 17.7023 18.5287C16.7646 19.4664 15.4928 19.9932 14.1667 19.9932C12.8407 19.9932 11.5689 19.4664 10.6312 18.5287C9.69353 17.591 9.16675 16.3192 9.16675 14.9932ZM13.3334 12.4932V15.8265H16.6667V14.1598H15.0001V12.4932H13.3334Z" fill="#DCCB92"/>
</svg>
