<svg width="33" height="33" viewBox="0 0 33 33" fill="none" xmlns="http://www.w3.org/2000/svg">
<path d="M29.84 10.16H31.1733V23.4933H29.84V27.4933C29.84 27.8469 29.6995 28.1861 29.4495 28.4361C29.1994 28.6862 28.8603 28.8267 28.5067 28.8267H4.50667C4.15305 28.8267 3.81391 28.6862 3.56386 28.4361C3.31382 28.1861 3.17334 27.8469 3.17334 27.4933V6.15999C3.17334 5.80637 3.31382 5.46723 3.56386 5.21718C3.81391 4.96714 4.15305 4.82666 4.50667 4.82666H28.5067C28.8603 4.82666 29.1994 4.96714 29.4495 5.21718C29.6995 5.46723 29.84 5.80637 29.84 6.15999V10.16ZM27.1733 23.4933H19.1733C17.4052 23.4933 15.7095 22.7909 14.4593 21.5407C13.2091 20.2905 12.5067 18.5948 12.5067 16.8267C12.5067 15.0586 13.2091 13.3629 14.4593 12.1126C15.7095 10.8624 17.4052 10.16 19.1733 10.16H27.1733V7.49333H5.84001V26.16H27.1733V23.4933ZM28.5067 20.8267V12.8267H19.1733C18.1125 12.8267 17.0951 13.2481 16.3449 13.9982C15.5948 14.7484 15.1733 15.7658 15.1733 16.8267C15.1733 17.8875 15.5948 18.9049 16.3449 19.6551C17.0951 20.4052 18.1125 20.8267 19.1733 20.8267H28.5067ZM19.1733 15.4933H23.1733V18.16H19.1733V15.4933Z" fill="#282A36"/>
</svg>
